<?xml version="1.0" encoding="UTF-8" standalone="no"?>
<svg
   xmlns:dc="http://purl.org/dc/elements/1.1/"
   xmlns:cc="http://creativecommons.org/ns#"
   xmlns:rdf="http://www.w3.org/1999/02/22-rdf-syntax-ns#"
   xmlns:svg="http://www.w3.org/2000/svg"
   xmlns="http://www.w3.org/2000/svg"
   xmlns:sodipodi="http://sodipodi.sourceforge.net/DTD/sodipodi-0.dtd"
   xmlns:inkscape="http://www.inkscape.org/namespaces/inkscape"
   id="Layer_1"
   data-name="Layer 1"
   width="170"
   height="84.399986"
   viewBox="0 0 170.00001 84.399988"
   version="1.1"
   inkscape:version="0.91 r13725"
   sodipodi:docname="clear-view-escapes.svg">
  <metadata
     id="metadata43">
    <rdf:RDF>
      <cc:Work
         rdf:about="">
        <dc:format>image/svg+xml</dc:format>
        <dc:type
           rdf:resource="http://purl.org/dc/dcmitype/StillImage" />
        <dc:title>clear-view-escapes</dc:title>
      </cc:Work>
    </rdf:RDF>
  </metadata>
  <sodipodi:namedview
     pagecolor="#ffffff"
     bordercolor="#666666"
     borderopacity="1"
     objecttolerance="10"
     gridtolerance="10"
     guidetolerance="10"
     inkscape:pageopacity="0"
     inkscape:pageshadow="2"
     inkscape:window-width="1465"
     inkscape:window-height="841"
     id="namedview41"
     showgrid="false"
     inkscape:zoom="2.5000001"
     inkscape:cx="105.65652"
     inkscape:cy="36.552018"
     inkscape:window-x="-8"
     inkscape:window-y="-8"
     inkscape:window-maximized="1"
     inkscape:current-layer="Layer_1"
     fit-margin-top="0"
     fit-margin-left="0"
     fit-margin-right="0"
     fit-margin-bottom="0" />
  <defs
     id="defs3">
    <style
       id="style5">.cls-1{fill:#fff;}</style>
  </defs>
  <title
     id="title7">clear-view-escapes</title>
  <rect
     style="opacity:1;fill:#2a4b6a;fill-opacity:1;fill-rule:nonzero;stroke:none;stroke-width:1;stroke-linecap:round;stroke-linejoin:miter;stroke-miterlimit:4;stroke-dasharray:none;stroke-opacity:1"
     id="rect4171"
     width="170"
     height="84.399986"
     x="0"
     y="0" />
  <path
     inkscape:connector-curvature="0"
     id="path4154"
     style="font-style:normal;font-weight:normal;font-size:medium;line-height:125%;font-family:sans-serif;letter-spacing:0px;word-spacing:0px;fill:#ffffff;fill-opacity:1;stroke:none;stroke-width:1px;stroke-linecap:butt;stroke-linejoin:miter;stroke-opacity:1"
     d="m 56.103791,31.467755 q -0.388053,0.169332 -0.705551,0.317498 -0.310443,0.148166 -0.81844,0.310443 -0.430387,0.134055 -0.938384,0.225776 -0.500941,0.09878 -1.107716,0.09878 -1.142993,0 -2.081377,-0.317498 -0.931328,-0.324554 -1.622769,-1.008939 -0.677329,-0.670274 -1.058327,-1.700379 -0.380998,-1.037161 -0.380998,-2.405931 0,-1.298215 0.366887,-2.321265 0.366886,-1.02305 1.058327,-1.728601 0.670274,-0.684386 1.615713,-1.044217 0.952495,-0.359831 2.1096,-0.359831 0.846662,0 1.686268,0.20461 0.846662,0.20461 1.876767,0.719662 l 0,1.658047 -0.105832,0 q -0.867829,-0.726718 -1.721546,-1.058328 -0.853718,-0.331609 -1.827379,-0.331609 -0.797273,0 -1.439325,0.261054 -0.634997,0.253999 -1.135938,0.797273 -0.486831,0.529164 -0.761996,1.340549 -0.26811,0.804328 -0.26811,1.862656 0,1.107716 0.296332,1.904989 0.303387,0.797274 0.776107,1.298215 0.493886,0.522109 1.150049,0.776107 0.663218,0.246943 1.396992,0.246943 1.008939,0 1.890878,-0.34572 0.88194,-0.34572 1.650991,-1.037161 l 0.09878,0 0,1.63688 z" />
  <path
     inkscape:connector-curvature="0"
     id="path4156"
     style="font-style:normal;font-weight:normal;font-size:medium;line-height:125%;font-family:sans-serif;letter-spacing:0px;word-spacing:0px;fill:#ffffff;fill-opacity:1;stroke:none;stroke-width:1px;stroke-linecap:butt;stroke-linejoin:miter;stroke-opacity:1"
     d="m 59.328162,32.229751 -1.326437,0 0,-10.978384 1.326437,0 0,10.978384 z" />
  <path
     inkscape:connector-curvature="0"
     id="path4158"
     style="font-style:normal;font-weight:normal;font-size:medium;line-height:125%;font-family:sans-serif;letter-spacing:0px;word-spacing:0px;fill:#ffffff;fill-opacity:1;stroke:none;stroke-width:1px;stroke-linecap:butt;stroke-linejoin:miter;stroke-opacity:1"
     d="m 68.507389,28.426827 -5.80669,0 q 0,0.726718 0.218721,1.269993 0.218721,0.536219 0.599719,0.88194 0.366887,0.338665 0.867828,0.507997 0.507998,0.169332 1.114772,0.169332 0.804329,0 1.615713,-0.317498 0.81844,-0.324554 1.16416,-0.634996 l 0.07056,0 0,1.44638 q -0.670274,0.282221 -1.368771,0.47272 -0.698496,0.190499 -1.467547,0.190499 -1.961434,0 -3.062094,-1.058327 -1.100661,-1.065383 -1.100661,-3.019761 0,-1.933212 1.051272,-3.06915 1.058328,-1.135938 2.779874,-1.135938 1.594546,0 2.455319,0.931328 0.867829,0.931328 0.867829,2.645819 l 0,0.719662 z m -1.29116,-1.015994 q -0.0071,-1.044217 -0.529163,-1.615713 -0.515053,-0.571497 -1.57338,-0.571497 -1.065383,0 -1.70038,0.627941 -0.627941,0.627941 -0.712607,1.559269 l 4.51553,0 z" />
  <path
     inkscape:connector-curvature="0"
     id="path4160"
     style="font-style:normal;font-weight:normal;font-size:medium;line-height:125%;font-family:sans-serif;letter-spacing:0px;word-spacing:0px;fill:#ffffff;fill-opacity:1;stroke:none;stroke-width:1px;stroke-linecap:butt;stroke-linejoin:miter;stroke-opacity:1"
     d="m 76.642399,32.229751 -1.319381,0 0,-0.839607 q -0.176388,0.119944 -0.479775,0.338665 -0.296332,0.211665 -0.578553,0.338665 -0.331609,0.162277 -0.761996,0.268109 -0.430386,0.112889 -1.008938,0.112889 -1.065383,0 -1.806213,-0.705552 -0.740829,-0.705552 -0.740829,-1.799157 0,-0.89605 0.380998,-1.446381 0.388054,-0.557385 1.100661,-0.874884 0.719662,-0.317498 1.728601,-0.430386 1.008939,-0.112888 2.166044,-0.169333 l 0,-0.20461 q 0,-0.451553 -0.162277,-0.747884 -0.155222,-0.296332 -0.451553,-0.465664 -0.282221,-0.162277 -0.67733,-0.218721 -0.395109,-0.05644 -0.825495,-0.05644 -0.522108,0 -1.16416,0.14111 -0.642052,0.134055 -1.326437,0.395109 l -0.07056,0 0,-1.347604 q 0.388054,-0.105833 1.121827,-0.232832 0.733774,-0.126999 1.446381,-0.126999 0.832551,0 1.446381,0.14111 0.620886,0.134055 1.072439,0.465664 0.444497,0.324554 0.677329,0.839607 0.232832,0.515052 0.232832,1.277048 l 0,5.348082 z m -1.319381,-1.940267 0,-2.194266 q -0.606775,0.03528 -1.43227,0.105833 -0.81844,0.07056 -1.298215,0.20461 -0.571497,0.162277 -0.924273,0.507997 -0.352776,0.338665 -0.352776,0.938384 0,0.677329 0.40922,1.023049 0.40922,0.338665 1.248827,0.338665 0.698496,0 1.277048,-0.268109 0.578553,-0.275166 1.072439,-0.656163 z" />
  <path
     inkscape:connector-curvature="0"
     id="path4162"
     style="font-style:normal;font-weight:normal;font-size:medium;line-height:125%;font-family:sans-serif;letter-spacing:0px;word-spacing:0px;fill:#ffffff;fill-opacity:1;stroke:none;stroke-width:1px;stroke-linecap:butt;stroke-linejoin:miter;stroke-opacity:1"
     d="m 84.128302,25.79512 -0.07055,0 Q 83.76142,25.72456 83.4792,25.69634 q -0.275166,-0.03528 -0.656163,-0.03528 -0.61383,0 -1.185327,0.275165 -0.571497,0.26811 -1.100661,0.698496 l 0,5.595025 -1.326437,0 0,-7.881012 1.326437,0 0,1.16416 q 0.790218,-0.634996 1.389937,-0.896051 0.606774,-0.268109 1.234715,-0.268109 0.345721,0 0.500942,0.02117 0.155221,0.01411 0.465664,0.0635 l 0,1.361715 z" />
  <path
     inkscape:connector-curvature="0"
     id="path4164"
     style="font-style:normal;font-weight:normal;font-size:medium;line-height:125%;font-family:sans-serif;letter-spacing:0px;word-spacing:0px;fill:#ffffff;fill-opacity:1;stroke:none;stroke-width:1px;stroke-linecap:butt;stroke-linejoin:miter;stroke-opacity:1"
     d="m 98.860221,21.724087 -3.82409,10.505664 -1.862656,0 -3.82409,-10.505664 1.495769,0 3.294927,9.242726 3.294926,-9.242726 1.425214,0 z" />
  <path
     inkscape:connector-curvature="0"
     id="path4166"
     style="font-style:normal;font-weight:normal;font-size:medium;line-height:125%;font-family:sans-serif;letter-spacing:0px;word-spacing:0px;fill:#ffffff;fill-opacity:1;stroke:none;stroke-width:1px;stroke-linecap:butt;stroke-linejoin:miter;stroke-opacity:1"
     d="m 101.77415,23.029357 -1.49577,0 0,-1.375825 1.49577,0 0,1.375825 z m -0.0847,9.200394 -1.32644,0 0,-7.881012 1.32644,0 0,7.881012 z" />
  <path
     inkscape:connector-curvature="0"
     id="path4168"
     style="font-style:normal;font-weight:normal;font-size:medium;line-height:125%;font-family:sans-serif;letter-spacing:0px;word-spacing:0px;fill:#ffffff;fill-opacity:1;stroke:none;stroke-width:1px;stroke-linecap:butt;stroke-linejoin:miter;stroke-opacity:1"
     d="m 110.86871,28.426827 -5.80669,0 q 0,0.726718 0.21872,1.269993 0.21872,0.536219 0.59972,0.88194 0.36689,0.338665 0.86783,0.507997 0.508,0.169332 1.11477,0.169332 0.80433,0 1.61571,-0.317498 0.81844,-0.324554 1.16416,-0.634996 l 0.0705,0 0,1.44638 q -0.67027,0.282221 -1.36877,0.47272 -0.69849,0.190499 -1.46754,0.190499 -1.96144,0 -3.0621,-1.058327 -1.10066,-1.065383 -1.10066,-3.019761 0,-1.933212 1.05127,-3.06915 1.05833,-1.135938 2.77988,-1.135938 1.59454,0 2.45532,0.931328 0.86782,0.931328 0.86782,2.645819 l 0,0.719662 z m -1.29116,-1.015994 q -0.007,-1.044217 -0.52916,-1.615713 -0.51506,-0.571497 -1.57338,-0.571497 -1.06539,0 -1.70038,0.627941 -0.62794,0.627941 -0.71261,1.559269 l 4.51553,0 z" />
  <path
     inkscape:connector-curvature="0"
     id="path4170"
     style="font-style:normal;font-weight:normal;font-size:medium;line-height:125%;font-family:sans-serif;letter-spacing:0px;word-spacing:0px;fill:#ffffff;fill-opacity:1;stroke:none;stroke-width:1px;stroke-linecap:butt;stroke-linejoin:miter;stroke-opacity:1"
     d="m 122.79253,24.348739 -2.05315,7.881012 -1.22766,0 -2.02494,-6.0748 -2.01082,6.0748 -1.22061,0 -2.07432,-7.881012 1.38288,0 1.44638,6.103021 1.9685,-6.103021 1.0936,0 2.01788,6.103021 1.36877,-6.103021 1.33349,0 z" />
  <path
     inkscape:connector-curvature="0"
     id="path4190"
     style="font-style:normal;font-variant:normal;font-weight:bold;font-stretch:normal;font-size:medium;line-height:125%;font-family:Arial;-inkscape-font-specification:'Arial Bold';text-align:center;letter-spacing:0px;word-spacing:0px;text-anchor:middle;fill:#ffffff;fill-opacity:1;stroke:none;stroke-width:1px;stroke-linecap:butt;stroke-linejoin:miter;stroke-opacity:1"
     d="m 30.812376,57.723823 0,-19.685058 14.595948,0 0,3.330078 -10.621338,0 0,4.364014 9.882812,0 0,3.31665 -9.882812,0 0,5.357666 10.997314,0 0,3.31665 -14.971924,0 z" />
  <path
     inkscape:connector-curvature="0"
     id="path4192"
     style="font-style:normal;font-variant:normal;font-weight:bold;font-stretch:normal;font-size:medium;line-height:125%;font-family:Arial;-inkscape-font-specification:'Arial Bold';text-align:center;letter-spacing:0px;word-spacing:0px;text-anchor:middle;fill:#ffffff;fill-opacity:1;stroke:none;stroke-width:1px;stroke-linecap:butt;stroke-linejoin:miter;stroke-opacity:1"
     d="m 47.825316,53.65522 3.786621,-0.577393 q 0.241699,1.101075 0.980225,1.678467 0.738525,0.563965 2.067871,0.563965 1.463623,0 2.202148,-0.537109 0.496826,-0.375977 0.496826,-1.00708 0,-0.429688 -0.268554,-0.71167 -0.281983,-0.268555 -1.262207,-0.496827 -4.56543,-1.00708 -5.787354,-1.839599 -1.691894,-1.154785 -1.691894,-3.209229 0,-1.853027 1.463623,-3.115234 1.463623,-1.262207 4.538574,-1.262207 2.927246,0 4.350586,0.953369 1.42334,0.953369 1.960449,2.819824 l -3.55835,0.657959 q -0.228271,-0.832519 -0.872802,-1.275635 -0.631104,-0.443115 -1.812745,-0.443115 -1.490478,0 -2.135009,0.41626 -0.429688,0.29541 -0.429688,0.765381 0,0.402832 0.375977,0.684814 0.510254,0.375977 3.518066,1.060791 3.02124,0.684815 4.216309,1.678467 1.18164,1.00708 1.18164,2.806397 0,1.960449 -1.638183,3.370361 -1.638184,1.409912 -4.847412,1.409912 -2.913819,0 -4.619141,-1.181641 -1.691894,-1.18164 -2.215576,-3.209228 z" />
  <path
     inkscape:connector-curvature="0"
     id="path4194"
     style="font-style:normal;font-variant:normal;font-weight:bold;font-stretch:normal;font-size:medium;line-height:125%;font-family:Arial;-inkscape-font-specification:'Arial Bold';text-align:center;letter-spacing:0px;word-spacing:0px;text-anchor:middle;fill:#ffffff;fill-opacity:1;stroke:none;stroke-width:1px;stroke-linecap:butt;stroke-linejoin:miter;stroke-opacity:1"
     d="m 76.896361,47.679878 -3.719483,0.671387 q -0.187988,-1.114502 -0.859375,-1.678467 -0.657959,-0.563965 -1.71875,-0.563965 -1.409912,0 -2.255859,0.980225 -0.83252,0.966797 -0.83252,3.249512 0,2.537841 0.845948,3.585205 0.859375,1.047363 2.296142,1.047363 1.074219,0 1.759034,-0.604248 0.684814,-0.617676 0.966796,-2.108154 l 3.706055,0.631103 q -0.577392,2.55127 -2.215576,3.85376 -1.638184,1.30249 -4.390869,1.30249 -3.128662,0 -4.995117,-1.973877 -1.853028,-1.973877 -1.853028,-5.465088 0,-3.531494 1.866455,-5.491943 1.866455,-1.973877 5.048828,-1.973877 2.604981,0 4.135743,1.12793 1.544189,1.114502 2.215576,3.410644 z" />
  <path
     inkscape:connector-curvature="0"
     id="path4196"
     style="font-style:normal;font-variant:normal;font-weight:bold;font-stretch:normal;font-size:medium;line-height:125%;font-family:Arial;-inkscape-font-specification:'Arial Bold';text-align:center;letter-spacing:0px;word-spacing:0px;text-anchor:middle;fill:#ffffff;fill-opacity:1;stroke:none;stroke-width:1px;stroke-linecap:butt;stroke-linejoin:miter;stroke-opacity:1"
     d="M 82.58972,47.814155 79.165648,47.19648 q 0.577392,-2.067871 1.987305,-3.061524 1.409912,-0.993652 4.189453,-0.993652 2.524414,0 3.759765,0.604248 1.235352,0.59082 1.732178,1.517334 0.510254,0.913086 0.510254,3.370361 l -0.04028,4.404297 q 0,1.879883 0.17456,2.779541 0.187989,0.886231 0.684815,1.906738 l -3.73291,0 q -0.147705,-0.375976 -0.362549,-1.114502 -0.09399,-0.335693 -0.134278,-0.443115 -0.966796,0.939942 -2.067871,1.409912 -1.101074,0.469971 -2.349853,0.469971 -2.202149,0 -3.477783,-1.195068 -1.262207,-1.195069 -1.262207,-3.021241 0,-1.208496 0.577392,-2.148437 0.577393,-0.953369 1.611328,-1.450195 1.047364,-0.510254 3.007813,-0.886231 2.645263,-0.496826 3.665771,-0.926514 l 0,-0.375976 q 0,-1.087647 -0.537109,-1.54419 -0.537109,-0.46997 -2.027588,-0.46997 -1.00708,0 -1.571045,0.402832 -0.563965,0.389404 -0.913086,1.383056 z m 5.048828,3.061524 q -0.725097,0.241699 -2.296142,0.577392 -1.571045,0.335694 -2.054444,0.657959 -0.738525,0.523682 -0.738525,1.329346 0,0.792236 0.59082,1.369629 0.590821,0.577393 1.503907,0.577393 1.020507,0 1.947021,-0.671387 0.684814,-0.510254 0.899658,-1.248779 0.147705,-0.483399 0.147705,-1.8396 l 0,-0.751953 z" />
  <path
     inkscape:connector-curvature="0"
     id="path4198"
     style="font-style:normal;font-variant:normal;font-weight:bold;font-stretch:normal;font-size:medium;line-height:125%;font-family:Arial;-inkscape-font-specification:'Arial Bold';text-align:center;letter-spacing:0px;word-spacing:0px;text-anchor:middle;fill:#ffffff;fill-opacity:1;stroke:none;stroke-width:1px;stroke-linecap:butt;stroke-linejoin:miter;stroke-opacity:1"
     d="m 94.970091,43.46357 3.518067,0 0,2.094726 q 0.684814,-1.074219 1.853022,-1.745605 1.16822,-0.671387 2.59156,-0.671387 2.48413,0 4.21631,1.947021 1.73217,1.947022 1.73217,5.424805 0,3.571777 -1.7456,5.559082 -1.74561,1.973877 -4.22974,1.973877 -1.18164,0 -2.14844,-0.469971 -0.953364,-0.46997 -2.014155,-1.611328 l 0,7.183838 -3.773194,0 0,-19.685058 z m 3.73291,6.888427 q 0,2.403565 0.95337,3.55835 0.953369,1.141357 2.322999,1.141357 1.31592,0 2.18872,-1.047363 0.8728,-1.060791 0.8728,-3.464355 0,-2.242432 -0.89966,-3.330079 -0.89965,-1.087646 -2.229,-1.087646 -1.38306,0 -2.296143,1.074219 -0.913086,1.060791 -0.913086,3.155517 z" />
  <path
     inkscape:connector-curvature="0"
     id="path4200"
     style="font-style:normal;font-variant:normal;font-weight:bold;font-stretch:normal;font-size:medium;line-height:125%;font-family:Arial;-inkscape-font-specification:'Arial Bold';text-align:center;letter-spacing:0px;word-spacing:0px;text-anchor:middle;fill:#ffffff;fill-opacity:1;stroke:none;stroke-width:1px;stroke-linecap:butt;stroke-linejoin:miter;stroke-opacity:1"
     d="m 120.14709,53.185249 3.75977,0.631104 q -0.7251,2.067871 -2.29614,3.155517 -1.55762,1.074219 -3.90747,1.074219 -3.71949,0 -5.50538,-2.43042 -1.40991,-1.947021 -1.40991,-4.914551 0,-3.544922 1.85303,-5.545654 1.85303,-2.01416 4.68628,-2.01416 3.18237,0 5.02197,2.108154 1.8396,2.094727 1.75903,6.431885 l -9.45312,0 q 0.0403,1.678467 0.91308,2.618408 0.87281,0.926514 2.1753,0.926514 0.88623,0 1.49048,-0.483399 0.60425,-0.483398 0.91308,-1.557617 z m 0.21485,-3.813476 q -0.0403,-1.638184 -0.84595,-2.484131 -0.80566,-0.859375 -1.96045,-0.859375 -1.23535,0 -2.04102,0.899658 -0.80566,0.899658 -0.79223,2.443848 l 5.63965,0 z" />
  <path
     inkscape:connector-curvature="0"
     id="path4202"
     style="font-style:normal;font-variant:normal;font-weight:bold;font-stretch:normal;font-size:medium;line-height:125%;font-family:Arial;-inkscape-font-specification:'Arial Bold';text-align:center;letter-spacing:0px;word-spacing:0px;text-anchor:middle;fill:#ffffff;fill-opacity:1;stroke:none;stroke-width:1px;stroke-linecap:butt;stroke-linejoin:miter;stroke-opacity:1"
     d="m 125.86731,53.65522 3.78662,-0.577393 q 0.2417,1.101075 0.98022,1.678467 0.73853,0.563965 2.06787,0.563965 1.46363,0 2.20215,-0.537109 0.49683,-0.375977 0.49683,-1.00708 0,-0.429688 -0.26856,-0.71167 -0.28198,-0.268555 -1.2622,-0.496827 -4.56543,-1.00708 -5.78736,-1.839599 -1.69189,-1.154785 -1.69189,-3.209229 0,-1.853027 1.46362,-3.115234 1.46363,-1.262207 4.53858,-1.262207 2.92724,0 4.35058,0.953369 1.42334,0.953369 1.96045,2.819824 l -3.55835,0.657959 q -0.22827,-0.832519 -0.8728,-1.275635 -0.6311,-0.443115 -1.81274,-0.443115 -1.49048,0 -2.13501,0.41626 -0.42969,0.29541 -0.42969,0.765381 0,0.402832 0.37597,0.684814 0.51026,0.375977 3.51807,1.060791 3.02124,0.684815 4.21631,1.678467 1.18164,1.00708 1.18164,2.806397 0,1.960449 -1.63818,3.370361 -1.63819,1.409912 -4.84742,1.409912 -2.91381,0 -4.61914,-1.181641 -1.69189,-1.18164 -2.21557,-3.209228 z" />
</svg>
