<?xml version="1.0" encoding="UTF-8" standalone="no"?>
<svg
   xmlns:dc="http://purl.org/dc/elements/1.1/"
   xmlns:cc="http://creativecommons.org/ns#"
   xmlns:rdf="http://www.w3.org/1999/02/22-rdf-syntax-ns#"
   xmlns:svg="http://www.w3.org/2000/svg"
   xmlns="http://www.w3.org/2000/svg"
   xmlns:sodipodi="http://sodipodi.sourceforge.net/DTD/sodipodi-0.dtd"
   xmlns:inkscape="http://www.inkscape.org/namespaces/inkscape"
   id="Layer_1"
   data-name="Layer 1"
   width="142.4"
   height="59.53"
   viewBox="0 0 142.4 59.53"
   version="1.1"
   inkscape:version="0.91 r13725"
   sodipodi:docname="clear-view-escapes.svg">
  <metadata
     id="metadata43">
    <rdf:RDF>
      <cc:Work
         rdf:about="">
        <dc:format>image/svg+xml</dc:format>
        <dc:type
           rdf:resource="http://purl.org/dc/dcmitype/StillImage" />
      </cc:Work>
    </rdf:RDF>
  </metadata>
  <sodipodi:namedview
     pagecolor="#ffffff"
     bordercolor="#666666"
     borderopacity="1"
     objecttolerance="10"
     gridtolerance="10"
     guidetolerance="10"
     inkscape:pageopacity="0"
     inkscape:pageshadow="2"
     inkscape:window-width="1280"
     inkscape:window-height="961"
     id="namedview41"
     showgrid="false"
     inkscape:zoom="3.5355341"
     inkscape:cx="102.48902"
     inkscape:cy="5.9288658"
     inkscape:window-x="1358"
     inkscape:window-y="-8"
     inkscape:window-maximized="1"
     inkscape:current-layer="Layer_1" />
  <defs
     id="defs3">
    <style
       id="style5">.cls-1{fill:#fff;}</style>
  </defs>
  <title
     id="title7">clear-view-escapes</title>
  <rect
     style="opacity:1;fill:#2a4b6a;fill-opacity:1;fill-rule:nonzero;stroke:none;stroke-width:1;stroke-linecap:round;stroke-linejoin:miter;stroke-miterlimit:4;stroke-dasharray:none;stroke-opacity:1"
     id="rect4171"
     width="143.59999"
     height="60.399998"
     x="-0.46670923"
     y="-0.42527959" />
  <path
     inkscape:connector-curvature="0"
     id="path4154"
     style="font-style:normal;font-weight:normal;font-size:medium;line-height:125%;font-family:sans-serif;letter-spacing:0px;word-spacing:0px;fill:#ffffff;fill-opacity:1;stroke:none;stroke-width:1px;stroke-linecap:butt;stroke-linejoin:miter;stroke-opacity:1"
     d="m 39.577763,20.970989 q -0.388053,0.169332 -0.705551,0.317498 -0.310443,0.148166 -0.81844,0.310443 -0.430387,0.134055 -0.938384,0.225776 -0.500941,0.09878 -1.107716,0.09878 -1.142993,0 -2.081377,-0.317498 -0.931328,-0.324554 -1.622769,-1.008939 -0.677329,-0.670274 -1.058327,-1.700379 -0.380998,-1.037161 -0.380998,-2.405931 0,-1.298215 0.366887,-2.321265 0.366886,-1.02305 1.058327,-1.728601 0.670274,-0.684386 1.615713,-1.044217 0.952495,-0.359831 2.1096,-0.359831 0.846662,0 1.686268,0.20461 0.846662,0.20461 1.876767,0.719662 l 0,1.658047 -0.105832,0 q -0.867829,-0.726718 -1.721546,-1.058328 -0.853718,-0.331609 -1.827379,-0.331609 -0.797273,0 -1.439325,0.261054 -0.634997,0.253999 -1.135938,0.797273 -0.486831,0.529164 -0.761996,1.340549 -0.26811,0.804328 -0.26811,1.862656 0,1.107716 0.296332,1.904989 0.303387,0.797274 0.776107,1.298215 0.493886,0.522109 1.150049,0.776107 0.663218,0.246943 1.396992,0.246943 1.008939,0 1.890878,-0.34572 0.88194,-0.34572 1.650991,-1.037161 l 0.09878,0 0,1.63688 z" />
  <path
     inkscape:connector-curvature="0"
     id="path4156"
     style="font-style:normal;font-weight:normal;font-size:medium;line-height:125%;font-family:sans-serif;letter-spacing:0px;word-spacing:0px;fill:#ffffff;fill-opacity:1;stroke:none;stroke-width:1px;stroke-linecap:butt;stroke-linejoin:miter;stroke-opacity:1"
     d="m 42.802134,21.732985 -1.326437,0 0,-10.978384 1.326437,0 0,10.978384 z" />
  <path
     inkscape:connector-curvature="0"
     id="path4158"
     style="font-style:normal;font-weight:normal;font-size:medium;line-height:125%;font-family:sans-serif;letter-spacing:0px;word-spacing:0px;fill:#ffffff;fill-opacity:1;stroke:none;stroke-width:1px;stroke-linecap:butt;stroke-linejoin:miter;stroke-opacity:1"
     d="m 51.981361,17.930061 -5.80669,0 q 0,0.726718 0.218721,1.269993 0.218721,0.536219 0.599719,0.88194 0.366887,0.338665 0.867828,0.507997 0.507998,0.169332 1.114772,0.169332 0.804329,0 1.615713,-0.317498 0.81844,-0.324554 1.16416,-0.634996 l 0.07056,0 0,1.44638 q -0.670274,0.282221 -1.368771,0.47272 -0.698496,0.190499 -1.467547,0.190499 -1.961434,0 -3.062094,-1.058327 -1.100661,-1.065383 -1.100661,-3.019761 0,-1.933212 1.051272,-3.06915 1.058328,-1.135938 2.779874,-1.135938 1.594546,0 2.455319,0.931328 0.867829,0.931328 0.867829,2.645819 l 0,0.719662 z m -1.29116,-1.015994 q -0.0071,-1.044217 -0.529163,-1.615713 -0.515053,-0.571497 -1.57338,-0.571497 -1.065383,0 -1.70038,0.627941 -0.627941,0.627941 -0.712607,1.559269 l 4.51553,0 z" />
  <path
     inkscape:connector-curvature="0"
     id="path4160"
     style="font-style:normal;font-weight:normal;font-size:medium;line-height:125%;font-family:sans-serif;letter-spacing:0px;word-spacing:0px;fill:#ffffff;fill-opacity:1;stroke:none;stroke-width:1px;stroke-linecap:butt;stroke-linejoin:miter;stroke-opacity:1"
     d="m 60.116371,21.732985 -1.319381,0 0,-0.839607 q -0.176388,0.119944 -0.479775,0.338665 -0.296332,0.211665 -0.578553,0.338665 -0.331609,0.162277 -0.761996,0.268109 -0.430386,0.112889 -1.008938,0.112889 -1.065383,0 -1.806213,-0.705552 -0.740829,-0.705552 -0.740829,-1.799157 0,-0.89605 0.380998,-1.446381 0.388054,-0.557385 1.100661,-0.874884 0.719662,-0.317498 1.728601,-0.430386 1.008939,-0.112888 2.166044,-0.169333 l 0,-0.20461 q 0,-0.451553 -0.162277,-0.747884 -0.155222,-0.296332 -0.451553,-0.465664 -0.282221,-0.162277 -0.67733,-0.218721 -0.395109,-0.05644 -0.825495,-0.05644 -0.522108,0 -1.16416,0.14111 -0.642052,0.134055 -1.326437,0.395109 l -0.07056,0 0,-1.347604 q 0.388054,-0.105833 1.121827,-0.232832 0.733774,-0.126999 1.446381,-0.126999 0.832551,0 1.446381,0.14111 0.620886,0.134055 1.072439,0.465664 0.444497,0.324554 0.677329,0.839607 0.232832,0.515052 0.232832,1.277048 l 0,5.348082 z m -1.319381,-1.940267 0,-2.194266 q -0.606775,0.03528 -1.43227,0.105833 -0.81844,0.07056 -1.298215,0.20461 -0.571497,0.162277 -0.924273,0.507997 -0.352776,0.338665 -0.352776,0.938384 0,0.677329 0.40922,1.023049 0.40922,0.338665 1.248827,0.338665 0.698496,0 1.277048,-0.268109 0.578553,-0.275166 1.072439,-0.656163 z" />
  <path
     inkscape:connector-curvature="0"
     id="path4162"
     style="font-style:normal;font-weight:normal;font-size:medium;line-height:125%;font-family:sans-serif;letter-spacing:0px;word-spacing:0px;fill:#ffffff;fill-opacity:1;stroke:none;stroke-width:1px;stroke-linecap:butt;stroke-linejoin:miter;stroke-opacity:1"
     d="m 67.602274,15.298354 -0.07055,0 q -0.296332,-0.07056 -0.578552,-0.09878 -0.275166,-0.03528 -0.656163,-0.03528 -0.61383,0 -1.185327,0.275165 -0.571497,0.26811 -1.100661,0.698496 l 0,5.595025 -1.326437,0 0,-7.881012 1.326437,0 0,1.16416 q 0.790218,-0.634996 1.389937,-0.896051 0.606774,-0.268109 1.234715,-0.268109 0.345721,0 0.500942,0.02117 0.155221,0.01411 0.465664,0.0635 l 0,1.361715 z" />
  <path
     inkscape:connector-curvature="0"
     id="path4164"
     style="font-style:normal;font-weight:normal;font-size:medium;line-height:125%;font-family:sans-serif;letter-spacing:0px;word-spacing:0px;fill:#ffffff;fill-opacity:1;stroke:none;stroke-width:1px;stroke-linecap:butt;stroke-linejoin:miter;stroke-opacity:1"
     d="m 82.334193,11.227321 -3.82409,10.505664 -1.862656,0 -3.82409,-10.505664 1.495769,0 3.294927,9.242726 3.294926,-9.242726 1.425214,0 z" />
  <path
     inkscape:connector-curvature="0"
     id="path4166"
     style="font-style:normal;font-weight:normal;font-size:medium;line-height:125%;font-family:sans-serif;letter-spacing:0px;word-spacing:0px;fill:#ffffff;fill-opacity:1;stroke:none;stroke-width:1px;stroke-linecap:butt;stroke-linejoin:miter;stroke-opacity:1"
     d="m 85.248122,12.532591 -1.495769,0 0,-1.375825 1.495769,0 0,1.375825 z m -0.08467,9.200394 -1.326437,0 0,-7.881012 1.326437,0 0,7.881012 z" />
  <path
     inkscape:connector-curvature="0"
     id="path4168"
     style="font-style:normal;font-weight:normal;font-size:medium;line-height:125%;font-family:sans-serif;letter-spacing:0px;word-spacing:0px;fill:#ffffff;fill-opacity:1;stroke:none;stroke-width:1px;stroke-linecap:butt;stroke-linejoin:miter;stroke-opacity:1"
     d="m 94.342682,17.930061 -5.80669,0 q 0,0.726718 0.218721,1.269993 0.218721,0.536219 0.599719,0.88194 0.366887,0.338665 0.867829,0.507997 0.507997,0.169332 1.114771,0.169332 0.804329,0 1.615714,-0.317498 0.81844,-0.324554 1.16416,-0.634996 l 0.07055,0 0,1.44638 q -0.670274,0.282221 -1.36877,0.47272 -0.698496,0.190499 -1.467548,0.190499 -1.961433,0 -3.062094,-1.058327 -1.10066,-1.065383 -1.10066,-3.019761 0,-1.933212 1.051272,-3.06915 1.058327,-1.135938 2.779873,-1.135938 1.594547,0 2.45532,0.931328 0.867828,0.931328 0.867828,2.645819 l 0,0.719662 z m -1.291159,-1.015994 q -0.0071,-1.044217 -0.529164,-1.615713 -0.515053,-0.571497 -1.57338,-0.571497 -1.065383,0 -1.700379,0.627941 -0.627941,0.627941 -0.712608,1.559269 l 4.515531,0 z" />
  <path
     inkscape:connector-curvature="0"
     id="path4170"
     style="font-style:normal;font-weight:normal;font-size:medium;line-height:125%;font-family:sans-serif;letter-spacing:0px;word-spacing:0px;fill:#ffffff;fill-opacity:1;stroke:none;stroke-width:1px;stroke-linecap:butt;stroke-linejoin:miter;stroke-opacity:1"
     d="m 106.2665,13.851973 -2.05315,7.881012 -1.22766,0 -2.02494,-6.0748 -2.010818,6.0748 -1.220605,0 -2.074321,-7.881012 1.382881,0 1.446381,6.103021 1.968492,-6.103021 1.0936,0 2.01788,6.103021 1.36877,-6.103021 1.33349,0 z" />
  <path
     inkscape:connector-curvature="0"
     id="path4173"
     style="font-style:normal;font-weight:normal;font-size:medium;line-height:125%;font-family:sans-serif;letter-spacing:0px;word-spacing:0px;fill:#ffffff;fill-opacity:1;stroke:none;stroke-width:1px;stroke-linecap:butt;stroke-linejoin:miter;stroke-opacity:1"
     d="m 37.852607,44.182217 -10.982961,0 0,-16.670367 10.982961,0 0,1.97044 -8.766216,0 0,4.567837 8.766216,0 0,1.97044 -8.766216,0 0,6.19121 8.766216,0 0,1.97044 z" />
  <path
     inkscape:connector-curvature="0"
     id="path4175"
     style="font-style:normal;font-weight:normal;font-size:medium;line-height:125%;font-family:sans-serif;letter-spacing:0px;word-spacing:0px;fill:#ffffff;fill-opacity:1;stroke:none;stroke-width:1px;stroke-linecap:butt;stroke-linejoin:miter;stroke-opacity:1"
     d="m 50.145464,40.577208 q 0,1.712939 -1.421852,2.810115 -1.410655,1.097177 -3.862509,1.097177 -1.388264,0 -2.552615,-0.324675 -1.153155,-0.33587 -1.936852,-0.727719 l 0,-2.362288 0.111956,0 q 0.996416,0.75011 2.216745,1.197938 1.220329,0.436631 2.339897,0.436631 1.388264,0 2.171962,-0.447827 0.783697,-0.447827 0.783697,-1.410656 0,-0.738915 -0.425436,-1.119568 -0.425435,-0.380653 -1.634569,-0.649349 -0.447827,-0.100761 -1.175546,-0.235109 -0.716524,-0.134348 -1.309895,-0.291088 -1.645764,-0.436631 -2.339896,-1.276307 -0.682937,-0.850872 -0.682937,-2.082397 0,-0.772502 0.313479,-1.455438 0.324675,-0.682936 0.974024,-1.220329 0.626958,-0.526197 1.589787,-0.82848 0.974024,-0.313479 2.171961,-0.313479 1.119568,0 2.261528,0.279892 1.153155,0.268696 1.914461,0.660545 l 0,2.250331 -0.111957,0 q -0.806089,-0.593371 -1.959244,-0.996415 -1.153155,-0.41424 -2.261527,-0.41424 -1.153155,0 -1.948048,0.447827 -0.794894,0.436631 -0.794894,1.309894 0,0.772502 0.481415,1.164351 0.470218,0.391849 1.522612,0.638154 0.582175,0.134348 1.298699,0.268696 0.727719,0.134348 1.209133,0.246305 1.466634,0.33587 2.261527,1.153155 0.794894,0.82848 0.794894,2.194353 z" />
  <path
     inkscape:connector-curvature="0"
     id="path4177"
     style="font-style:normal;font-weight:normal;font-size:medium;line-height:125%;font-family:sans-serif;letter-spacing:0px;word-spacing:0px;fill:#ffffff;fill-opacity:1;stroke:none;stroke-width:1px;stroke-linecap:butt;stroke-linejoin:miter;stroke-opacity:1"
     d="m 62.415929,43.398519 q -1.052394,0.503806 -2.004027,0.783698 -0.940437,0.279892 -2.004026,0.279892 -1.354677,0 -2.485441,-0.391849 -1.130763,-0.403045 -1.936852,-1.209134 -0.817285,-0.806088 -1.265112,-2.037613 -0.447827,-1.231525 -0.447827,-2.87729 0,-3.067616 1.679352,-4.814142 1.690547,-1.746526 4.45588,-1.746526 1.074785,0 2.104788,0.302284 1.041198,0.302283 1.903265,0.738914 l 0,2.339897 -0.111957,0 q -0.962828,-0.75011 -1.992831,-1.153155 -1.018806,-0.403044 -1.992831,-0.403044 -1.791308,0 -2.832506,1.209133 -1.030003,1.197938 -1.030003,3.526639 0,2.261528 1.007611,3.481857 1.018807,1.209133 2.854898,1.209133 0.638154,0 1.298699,-0.167935 0.660545,-0.167935 1.186742,-0.436632 0.459023,-0.235109 0.862068,-0.49261 0.403044,-0.268696 0.638153,-0.459022 l 0.111957,0 0,2.317505 z" />
  <path
     inkscape:connector-curvature="0"
     id="path4179"
     style="font-style:normal;font-weight:normal;font-size:medium;line-height:125%;font-family:sans-serif;letter-spacing:0px;word-spacing:0px;fill:#ffffff;fill-opacity:1;stroke:none;stroke-width:1px;stroke-linecap:butt;stroke-linejoin:miter;stroke-opacity:1"
     d="m 74.843133,44.182217 -2.093592,0 0,-1.332286 q -0.279892,0.190326 -0.761306,0.537392 -0.470219,0.335871 -0.918046,0.537393 -0.526197,0.257501 -1.209133,0.425436 -0.682937,0.179131 -1.600982,0.179131 -1.690548,0 -2.866094,-1.119568 -1.175546,-1.119568 -1.175546,-2.854898 0,-1.421852 0.604566,-2.295115 0.615763,-0.884458 1.746526,-1.388264 1.141959,-0.503805 2.742942,-0.682936 1.600982,-0.179131 3.437073,-0.268697 l 0,-0.324674 q 0,-0.716524 -0.257501,-1.186742 -0.246305,-0.470219 -0.716523,-0.738915 -0.447827,-0.257501 -1.074785,-0.347066 -0.626958,-0.08957 -1.309895,-0.08957 -0.82848,0 -1.847287,0.223914 -1.018807,0.212718 -2.104787,0.626958 l -0.111957,0 0,-2.138375 q 0.615762,-0.167935 1.780113,-0.369457 1.16435,-0.201522 2.295114,-0.201522 1.32109,0 2.295114,0.223913 0.98522,0.212718 1.701743,0.738915 0.705328,0.515001 1.074786,1.332286 0.369457,0.817284 0.369457,2.026418 l 0,8.486325 z m -2.093592,-3.078812 0,-3.481856 q -0.962828,0.05598 -2.272723,0.167935 -1.298699,0.111957 -2.060005,0.324675 -0.90685,0.2575 -1.466634,0.806088 -0.559784,0.537393 -0.559784,1.489026 0,1.074785 0.64935,1.623373 0.649349,0.537393 1.981635,0.537393 1.108372,0 2.026418,-0.425436 0.918046,-0.436631 1.701743,-1.041198 z" />
  <path
     inkscape:connector-curvature="0"
     id="path4181"
     style="font-style:normal;font-weight:normal;font-size:medium;line-height:125%;font-family:sans-serif;letter-spacing:0px;word-spacing:0px;fill:#ffffff;fill-opacity:1;stroke:none;stroke-width:1px;stroke-linecap:butt;stroke-linejoin:miter;stroke-opacity:1"
     d="m 89.923712,37.778288 q 0,1.522613 -0.436632,2.787724 -0.436631,1.253916 -1.231524,2.127179 -0.738915,0.828481 -1.746526,1.287503 -0.996416,0.447828 -2.115984,0.447828 -0.974024,0 -1.768917,-0.212718 -0.783698,-0.212718 -1.600982,-0.660545 l 0,5.239577 -2.104788,0 0,-17.118193 2.104788,0 0,1.309894 q 0.839676,-0.705327 1.880874,-1.175546 1.052394,-0.481414 2.239136,-0.481414 2.261527,0 3.515443,1.712939 1.265112,1.701743 1.265112,4.735772 z m -2.171962,0.05598 q 0,-2.261528 -0.772502,-3.381096 -0.772502,-1.119567 -2.373484,-1.119567 -0.90685,0 -1.824896,0.391848 -0.918045,0.391849 -1.757721,1.030003 l 0,7.086865 q 0.895654,0.403044 1.533808,0.548588 0.649349,0.145544 1.466634,0.145544 1.757721,0 2.742941,-1.186742 0.98522,-1.186742 0.98522,-3.515443 z" />
  <path
     inkscape:connector-curvature="0"
     id="path4183"
     style="font-style:normal;font-weight:normal;font-size:medium;line-height:125%;font-family:sans-serif;letter-spacing:0px;word-spacing:0px;fill:#ffffff;fill-opacity:1;stroke:none;stroke-width:1px;stroke-linecap:butt;stroke-linejoin:miter;stroke-opacity:1"
     d="m 103.67201,38.147746 -9.214048,0 q 0,1.153155 0.347066,2.015222 0.347066,0.850871 0.951632,1.39946 0.582176,0.537392 1.377069,0.806089 0.806089,0.268696 1.768917,0.268696 1.276304,0 2.563814,-0.503806 1.2987,-0.515001 1.84728,-1.007611 l 0.11196,0 0,2.295114 q -1.06359,0.447828 -2.17196,0.750111 -1.10837,0.302283 -2.328702,0.302283 -3.112399,0 -4.858925,-1.679352 -1.746526,-1.690547 -1.746526,-4.79175 0,-3.067616 1.668156,-4.870121 1.679352,-1.802504 4.411098,-1.802504 2.530219,0 3.896099,1.47783 1.37707,1.477829 1.37707,4.198379 l 0,1.14196 z m -2.04881,-1.612178 q -0.0112,-1.656961 -0.83968,-2.563811 -0.817284,-0.90685 -2.496636,-0.90685 -1.690548,0 -2.698159,0.996416 -0.996415,0.996415 -1.130763,2.474245 l 7.165238,0 z" />
  <path
     inkscape:connector-curvature="0"
     id="path4185"
     style="font-style:normal;font-weight:normal;font-size:medium;line-height:125%;font-family:sans-serif;letter-spacing:0px;word-spacing:0px;fill:#ffffff;fill-opacity:1;stroke:none;stroke-width:1px;stroke-linecap:butt;stroke-linejoin:miter;stroke-opacity:1"
     d="m 115.79693,40.577208 q 0,1.712939 -1.42185,2.810115 -1.41066,1.097177 -3.86251,1.097177 -1.38827,0 -2.55262,-0.324675 -1.15315,-0.33587 -1.93685,-0.727719 l 0,-2.362288 0.11196,0 q 0.99641,0.75011 2.21674,1.197938 1.22033,0.436631 2.3399,0.436631 1.38826,0 2.17196,-0.447827 0.7837,-0.447827 0.7837,-1.410656 0,-0.738915 -0.42544,-1.119568 -0.42543,-0.380653 -1.63457,-0.649349 -0.44783,-0.100761 -1.17554,-0.235109 -0.71653,-0.134348 -1.3099,-0.291088 -1.64576,-0.436631 -2.3399,-1.276307 -0.68293,-0.850872 -0.68293,-2.082397 0,-0.772502 0.31348,-1.455438 0.32467,-0.682936 0.97402,-1.220329 0.62696,-0.526197 1.58979,-0.82848 0.97402,-0.313479 2.17196,-0.313479 1.11957,0 2.26153,0.279892 1.15315,0.268696 1.91446,0.660545 l 0,2.250331 -0.11196,0 q -0.80609,-0.593371 -1.95924,-0.996415 -1.15316,-0.41424 -2.26153,-0.41424 -1.15316,0 -1.94805,0.447827 -0.79489,0.436631 -0.79489,1.309894 0,0.772502 0.48141,1.164351 0.47022,0.391849 1.52261,0.638154 0.58218,0.134348 1.2987,0.268696 0.72772,0.134348 1.20914,0.246305 1.46663,0.33587 2.26152,1.153155 0.7949,0.82848 0.7949,2.194353 z" />
</svg>
