<?xml version="1.0" encoding="UTF-8" standalone="no"?><svg width="271" height="226" viewBox="0 0 271 226" xmlns="http://www.w3.org/2000/svg" xmlns:xlink="http://www.w3.org/1999/xlink"><svg id="clear-view-escapes" data-name="Layer 1" width="142.4" height="59.53" version="1.1" viewBox="0 0 142.4 59.53" xmlns="http://www.w3.org/2000/svg"><defs id="adefs3"><style id="astyle5"/></defs><path id="arect4171" opacity="1" fill="#2a4b6a" fill-opacity="1" fill-rule="nonzero" stroke="none" stroke-width="1" stroke-linecap="round" stroke-linejoin="miter" stroke-miterlimit="4" stroke-dasharray="none" stroke-opacity="1" d="M-.467-.425h143.6v60.4H-.467z"/><path id="apath4154" style="line-height:125%" d="M39.578 20.971q-.388.17-.706.317-.31.149-.818.31-.43.135-.939.227-.5.098-1.107.098-1.143 0-2.082-.317-.931-.325-1.622-1.009-.678-.67-1.059-1.7-.38-1.037-.38-2.406 0-1.298.366-2.322.367-1.023 1.058-1.728.67-.685 1.616-1.044.953-.36 2.11-.36.846 0 1.686.204.847.205 1.877.72v1.658h-.106q-.868-.727-1.722-1.058-.853-.332-1.827-.332-.797 0-1.44.261-.634.254-1.135.798-.487.529-.762 1.34-.268.804-.268 1.863 0 1.107.296 1.905.303.797.776 1.298.494.522 1.15.776.663.247 1.397.247 1.01 0 1.891-.346.882-.345 1.651-1.037h.099v1.637z" font-style="normal" font-weight="400" font-size="medium" font-family="sans-serif" letter-spacing="0" word-spacing="0" fill="#fff" fill-opacity="1" stroke="none" stroke-width="1" stroke-linecap="butt" stroke-linejoin="miter" stroke-opacity="1"/><path id="apath4156" style="line-height:125%" d="M42.802 21.733h-1.326V10.755h1.326v10.978z" font-style="normal" font-weight="400" font-size="medium" font-family="sans-serif" letter-spacing="0" word-spacing="0" fill="#fff" fill-opacity="1" stroke="none" stroke-width="1" stroke-linecap="butt" stroke-linejoin="miter" stroke-opacity="1"/><path id="apath4158" style="line-height:125%" d="M51.981 17.93h-5.806q0 .727.218 1.27.22.536.6.882.367.339.868.508.508.17 1.115.17.804 0 1.615-.318.819-.325 1.165-.635h.07v1.446q-.67.282-1.369.473-.698.19-1.467.19-1.962 0-3.062-1.058-1.1-1.065-1.1-3.02 0-1.933 1.05-3.069 1.059-1.136 2.78-1.136 1.595 0 2.456.932.867.93.867 2.645v.72zm-1.29-1.016q-.008-1.044-.53-1.616-.515-.571-1.573-.571-1.066 0-1.7.628-.629.628-.713 1.56h4.515z" font-style="normal" font-weight="400" font-size="medium" font-family="sans-serif" letter-spacing="0" word-spacing="0" fill="#fff" fill-opacity="1" stroke="none" stroke-width="1" stroke-linecap="butt" stroke-linejoin="miter" stroke-opacity="1"/><path id="apath4160" style="line-height:125%" d="M60.116 21.733h-1.319v-.84q-.176.12-.48.339-.296.212-.578.339-.332.162-.762.268-.43.113-1.01.113-1.065 0-1.805-.706-.741-.705-.741-1.799 0-.896.38-1.446.389-.558 1.101-.875.72-.318 1.729-.43 1.009-.114 2.166-.17v-.205q0-.451-.162-.747-.156-.297-.452-.466-.282-.162-.677-.219-.395-.056-.826-.056-.522 0-1.164.14-.642.135-1.326.396h-.07V14.02q.387-.106 1.121-.233t1.446-.127q.833 0 1.447.142.62.134 1.072.465.445.325.678.84.232.515.232 1.277v5.348zm-1.319-1.94v-2.195q-.607.036-1.432.106-.819.07-1.298.205-.572.162-.925.508-.353.339-.353.938 0 .678.41 1.023.409.339 1.249.339.698 0 1.277-.268.578-.275 1.072-.656z" font-style="normal" font-weight="400" font-size="medium" font-family="sans-serif" letter-spacing="0" word-spacing="0" fill="#fff" fill-opacity="1" stroke="none" stroke-width="1" stroke-linecap="butt" stroke-linejoin="miter" stroke-opacity="1"/><path id="apath4162" style="line-height:125%" d="M67.602 15.298h-.07q-.297-.07-.579-.098-.275-.036-.656-.036-.614 0-1.185.275-.572.269-1.101.699v5.595h-1.326v-7.881h1.326v1.164q.79-.635 1.39-.896.607-.268 1.235-.268.345 0 .5.021.156.014.466.064v1.361z" font-style="normal" font-weight="400" font-size="medium" font-family="sans-serif" letter-spacing="0" word-spacing="0" fill="#fff" fill-opacity="1" stroke="none" stroke-width="1" stroke-linecap="butt" stroke-linejoin="miter" stroke-opacity="1"/><path id="apath4164" style="line-height:125%" d="M82.334 11.227L78.51 21.733h-1.863l-3.824-10.506h1.496l3.295 9.243 3.295-9.243h1.425z" font-style="normal" font-weight="400" font-size="medium" font-family="sans-serif" letter-spacing="0" word-spacing="0" fill="#fff" fill-opacity="1" stroke="none" stroke-width="1" stroke-linecap="butt" stroke-linejoin="miter" stroke-opacity="1"/><path id="apath4166" style="line-height:125%" d="M85.248 12.533h-1.496v-1.376h1.496v1.376zm-.085 9.2h-1.326v-7.881h1.326v7.881z" font-style="normal" font-weight="400" font-size="medium" font-family="sans-serif" letter-spacing="0" word-spacing="0" fill="#fff" fill-opacity="1" stroke="none" stroke-width="1" stroke-linecap="butt" stroke-linejoin="miter" stroke-opacity="1"/><path id="apath4168" style="line-height:125%" d="M94.343 17.93h-5.807q0 .727.219 1.27.218.536.6.882.366.339.867.508.508.17 1.115.17.804 0 1.616-.318.818-.325 1.164-.635h.07v1.446q-.67.282-1.368.473-.699.19-1.468.19-1.961 0-3.062-1.058-1.1-1.065-1.1-3.02 0-1.933 1.05-3.069 1.059-1.136 2.78-1.136 1.595 0 2.456.932.868.93.868 2.645v.72zm-1.291-1.016q-.008-1.044-.53-1.616-.515-.571-1.573-.571-1.065 0-1.7.628-.628.628-.713 1.56h4.516z" font-style="normal" font-weight="400" font-size="medium" font-family="sans-serif" letter-spacing="0" word-spacing="0" fill="#fff" fill-opacity="1" stroke="none" stroke-width="1" stroke-linecap="butt" stroke-linejoin="miter" stroke-opacity="1"/><path id="apath4170" style="line-height:125%" d="M106.266 13.852l-2.053 7.881h-1.227l-2.025-6.075-2.011 6.075h-1.22l-2.075-7.881h1.383l1.446 6.103 1.969-6.103h1.093l2.018 6.103 1.369-6.103h1.333z" font-style="normal" font-weight="400" font-size="medium" font-family="sans-serif" letter-spacing="0" word-spacing="0" fill="#fff" fill-opacity="1" stroke="none" stroke-width="1" stroke-linecap="butt" stroke-linejoin="miter" stroke-opacity="1"/><path id="apath4173" style="line-height:125%" d="M37.853 44.182H26.87v-16.67h10.983v1.97h-8.767v4.568h8.767v1.97h-8.767v6.192h8.767v1.97z" font-style="normal" font-weight="400" font-size="medium" font-family="sans-serif" letter-spacing="0" word-spacing="0" fill="#fff" fill-opacity="1" stroke="none" stroke-width="1" stroke-linecap="butt" stroke-linejoin="miter" stroke-opacity="1"/><path id="apath4175" style="line-height:125%" d="M50.145 40.577q0 1.713-1.421 2.81-1.411 1.098-3.863 1.098-1.388 0-2.553-.325-1.153-.336-1.936-.728V41.07h.112q.996.75 2.216 1.198 1.22.436 2.34.436 1.388 0 2.172-.447.784-.448.784-1.411 0-.739-.426-1.12-.425-.38-1.634-.649-.448-.1-1.176-.235-.716-.134-1.31-.291-1.645-.437-2.34-1.277-.682-.85-.682-2.082 0-.772.313-1.455.325-.683.974-1.22.627-.527 1.59-.83.974-.313 2.172-.313 1.12 0 2.261.28 1.154.269 1.915.66v2.251h-.112q-.806-.593-1.96-.996-1.153-.415-2.26-.415-1.154 0-1.949.448-.795.437-.795 1.31 0 .773.482 1.165.47.391 1.522.638.582.134 1.299.268.728.135 1.209.247 1.467.336 2.262 1.153.794.828.794 2.194z" font-style="normal" font-weight="400" font-size="medium" font-family="sans-serif" letter-spacing="0" word-spacing="0" fill="#fff" fill-opacity="1" stroke="none" stroke-width="1" stroke-linecap="butt" stroke-linejoin="miter" stroke-opacity="1"/><path id="apath4177" style="line-height:125%" d="M62.416 43.399q-1.052.503-2.004.783-.94.28-2.004.28-1.355 0-2.486-.392-1.13-.403-1.936-1.209-.818-.806-1.266-2.037-.447-1.232-.447-2.878 0-3.067 1.679-4.814 1.69-1.746 4.456-1.746 1.075 0 2.105.302 1.04.302 1.903.739v2.34h-.112q-.963-.75-1.993-1.154-1.019-.403-1.993-.403-1.791 0-2.832 1.21-1.03 1.198-1.03 3.526 0 2.262 1.007 3.482 1.02 1.21 2.855 1.21.638 0 1.299-.169.66-.168 1.187-.436.459-.235.862-.493.403-.269.638-.459h.112v2.318z" font-style="normal" font-weight="400" font-size="medium" font-family="sans-serif" letter-spacing="0" word-spacing="0" fill="#fff" fill-opacity="1" stroke="none" stroke-width="1" stroke-linecap="butt" stroke-linejoin="miter" stroke-opacity="1"/><path id="apath4179" style="line-height:125%" d="M74.843 44.182H72.75V42.85q-.28.19-.762.537-.47.336-.918.538-.526.257-1.209.425-.683.18-1.6.18-1.691 0-2.867-1.12t-1.176-2.855q0-1.422.605-2.295.616-.885 1.747-1.389 1.141-.503 2.742-.682 1.601-.18 3.438-.27v-.324q0-.716-.258-1.187-.246-.47-.716-.739-.448-.257-1.075-.347-.627-.09-1.31-.09-.829 0-1.847.225-1.02.212-2.105.627h-.112v-2.139q.616-.168 1.78-.37 1.164-.2 2.295-.2 1.321 0 2.295.223.985.213 1.702.74.705.514 1.075 1.331.37.818.37 2.027v8.486zm-2.093-3.079v-3.481q-.963.056-2.273.167-1.299.112-2.06.325-.907.258-1.467.806-.56.538-.56 1.49 0 1.074.65 1.623.65.537 1.981.537 1.109 0 2.027-.425.918-.437 1.702-1.042z" font-style="normal" font-weight="400" font-size="medium" font-family="sans-serif" letter-spacing="0" word-spacing="0" fill="#fff" fill-opacity="1" stroke="none" stroke-width="1" stroke-linecap="butt" stroke-linejoin="miter" stroke-opacity="1"/><path id="apath4181" style="line-height:125%" d="M89.924 37.778q0 1.523-.437 2.788-.437 1.254-1.231 2.127-.74.829-1.747 1.288-.996.448-2.116.448-.974 0-1.769-.213-.784-.213-1.6-.66v5.239h-2.106V31.677h2.105v1.31q.84-.706 1.881-1.176 1.052-.481 2.24-.481 2.26 0 3.515 1.713 1.265 1.701 1.265 4.735zm-2.172.056q0-2.261-.773-3.38-.772-1.12-2.373-1.12-.907 0-1.825.391-.918.392-1.758 1.03v7.087q.896.403 1.534.549.65.145 1.467.145 1.757 0 2.743-1.186.985-1.187.985-3.516z" font-style="normal" font-weight="400" font-size="medium" font-family="sans-serif" letter-spacing="0" word-spacing="0" fill="#fff" fill-opacity="1" stroke="none" stroke-width="1" stroke-linecap="butt" stroke-linejoin="miter" stroke-opacity="1"/><path id="apath4183" style="line-height:125%" d="M103.672 38.148h-9.214q0 1.153.347 2.015.347.85.952 1.4.582.537 1.377.806.806.268 1.769.268 1.276 0 2.563-.504 1.3-.515 1.848-1.007h.112v2.295q-1.064.448-2.172.75-1.109.302-2.329.302-3.112 0-4.859-1.679-1.746-1.69-1.746-4.792 0-3.067 1.668-4.87 1.68-1.802 4.41-1.802 2.531 0 3.897 1.477 1.377 1.478 1.377 4.199v1.142zm-2.049-1.612q-.011-1.657-.84-2.564-.817-.907-2.496-.907-1.69 0-2.698.996-.997.997-1.131 2.475h7.165z" font-style="normal" font-weight="400" font-size="medium" font-family="sans-serif" letter-spacing="0" word-spacing="0" fill="#fff" fill-opacity="1" stroke="none" stroke-width="1" stroke-linecap="butt" stroke-linejoin="miter" stroke-opacity="1"/><path id="apath4185" style="line-height:125%" d="M115.797 40.577q0 1.713-1.422 2.81-1.41 1.098-3.862 1.098-1.389 0-2.553-.325-1.153-.336-1.937-.728V41.07h.112q.996.75 2.217 1.198 1.22.436 2.34.436 1.388 0 2.172-.447.783-.448.783-1.411 0-.739-.425-1.12-.426-.38-1.635-.649-.447-.1-1.175-.235-.717-.134-1.31-.291-1.646-.437-2.34-1.277-.683-.85-.683-2.082 0-.772.314-1.455.324-.683.974-1.22.627-.527 1.59-.83.973-.313 2.171-.313 1.12 0 2.262.28 1.153.269 1.914.66v2.251h-.112q-.806-.593-1.959-.996-1.153-.415-2.261-.415-1.154 0-1.948.448-.795.437-.795 1.31 0 .773.481 1.165.47.391 1.523.638.582.134 1.298.268.728.135 1.21.247 1.466.336 2.261 1.153.795.828.795 2.194z" font-style="normal" font-weight="400" font-size="medium" font-family="sans-serif" letter-spacing="0" word-spacing="0" fill="#fff" fill-opacity="1" stroke="none" stroke-width="1" stroke-linecap="butt" stroke-linejoin="miter" stroke-opacity="1"/></svg><svg id="clear-view-escapes.svg.2018_12_01_20_13_37.0" data-name="Layer 1" width="142.4" height="59.53" version="1.1" viewBox="0 0 142.4 59.53" y="59.53" xmlns="http://www.w3.org/2000/svg"><defs id="bdefs3"><style id="bstyle5"/></defs><path id="brect4171" opacity="1" fill="#2a4b6a" fill-opacity="1" fill-rule="nonzero" stroke="none" stroke-width="1" stroke-linecap="round" stroke-linejoin="miter" stroke-miterlimit="4" stroke-dasharray="none" stroke-opacity="1" d="M.4.33H144v60.4H.4z"/><text xml:space="preserve" style="line-height:125%" x="20.232" y="18.243" id="btext4173" font-style="normal" font-weight="400" font-size="19.352" font-family="sans-serif" letter-spacing="0" word-spacing="0" fill="#fff" fill-opacity="1" stroke="none" stroke-width="1" stroke-linecap="butt" stroke-linejoin="miter" stroke-opacity="1"><tspan id="btspan4175" x="20.232" y="18.243" fill="#fff" fill-opacity="1" stroke="none" stroke-opacity="1">Clear View</tspan></text></svg><svg id="comment" data-name="Layer 1" width="64" height="64" viewBox="0 0 64 64" x="142.4" xmlns="http://www.w3.org/2000/svg"><defs><style>.ccls-1{fill:#2f5572}</style></defs><path class="ccls-1" d="M.72.08A.67.67 0 0 0 0 .8v46.48a.72.72 0 0 0 .72.72H48l16 16V.72a.67.67 0 0 0-.72-.72H.8z"/></svg><svg id="facebook" data-name="Layer 1" width="21.23" height="42.01" viewBox="0 0 21.23 42.01" x="184" y="119.06" xmlns="http://www.w3.org/2000/svg"><defs><style>.dcls-1{fill:#fff}</style></defs><path class="dcls-1" d="M21.23.31V7H17.4a3.55 3.55 0 0 0-2.85.91 4.26 4.26 0 0 0-.74 2.72v4.77H21l-1 7.47h-6.19V42H6.27V22.85H0v-7.47h6.27V9.85q0-4.69 2.55-7.28A9 9 0 0 1 15.63 0a39.57 39.57 0 0 1 5.6.31z"/></svg><svg id="fire" data-name="Layer 1" width="56" height="64" viewBox="0 0 56 64" y="119.06" xmlns="http://www.w3.org/2000/svg"><defs><style>.ecls-1{fill:#d4953d}</style></defs><path class="ecls-1" d="M16 0C24 16 0 24 0 40s16 24 16 24C8.16 48.16 32 40 32 24S16 0 16 0zm24 24c8 16-16 24-16 40h24c3.2 0 8-4 8-16 0-16-16-24-16-24z"/></svg><svg id="globe" data-name="Layer 1" width="64" height="64" viewBox="0 0 64 64" x="56" y="119.06" xmlns="http://www.w3.org/2000/svg"><defs><style>.fcls-1{fill:#d4953f}</style></defs><path class="fcls-1" d="M32 0a32 32 0 1 0 32 32A32 32 0 0 0 32 0zm0 8a23.75 23.75 0 0 1 7.52 1.52c-1.68 1.6-3.6 3-3.28 4.48s5.52 1 5.52 4c0 2.16-3.36 2.8-1 5.28 2.8 2.8-5.12 7.84-5.28 11.52-.24 6.64 6.72 7.76 12.24 7.76 3.36 0 4.24 1.6 4 3.52a24.07 24.07 0 0 1-19.76 10 22.94 22.94 0 0 1-8.48-1.76c1.76-3.52-2.24-10.48-6-12.72-1.84-1.84-5.76-1.12-8-2a23.49 23.49 0 0 1-1.52-6.72 1.42 1.42 0 0 1 1.28-.72c1.52 0 3.6 3 4.72 2.72 1.4-.32-5.96-10.48-2.52-12.48 1.6-1 4.8 3.12 3.76-1.28-1-4.08 2.88-2.24 5.28-3.28 2.08-.88 3.6-3.28 1-4.72a8.55 8.55 0 0 1-1.76-1.52A23.75 23.75 0 0 1 32 8.08V8zm18.48 8.72A26.46 26.46 0 0 1 54 22.48v.24a11.78 11.78 0 0 1-1.76 1.76C50 26.72 49.68 22.8 48.72 22c-1-1-4.8.16-5.28-1-.56-1.48 4-3.4 7.04-4.28z"/></svg><svg id="instagram" data-name="Layer 1" width="42.01" height="42.01" viewBox="0 0 42.01 42.01" y="183.06" xmlns="http://www.w3.org/2000/svg"><defs><style>.gcls-1{fill:#fff}</style></defs><path class="gcls-1" d="M37.25 35.49V17.77h-3.69a11.77 11.77 0 0 1 .57 3.58 12.12 12.12 0 0 1-1.75 6.36 12.76 12.76 0 0 1-4.76 4.59 13.13 13.13 0 0 1-6.56 1.7 12.78 12.78 0 0 1-9.19-3.71 12 12 0 0 1-3.83-9 11.77 11.77 0 0 1 .49-3.56H4.68v17.76a1.63 1.63 0 0 0 1.6 1.67h29.3a1.63 1.63 0 0 0 1.17-.47 1.59 1.59 0 0 0 .5-1.2zm-7.77-14.57A7.75 7.75 0 0 0 27 15.14a8.28 8.28 0 0 0-6-2.4 8.25 8.25 0 0 0-5.91 2.39 7.75 7.75 0 0 0-2.47 5.78 7.75 7.75 0 0 0 2.47 5.79A8.25 8.25 0 0 0 21 29.1a8.28 8.28 0 0 0 6-2.4 7.75 7.75 0 0 0 2.48-5.78zm7.76-9.84V6.56a1.84 1.84 0 0 0-.54-1.31 1.8 1.8 0 0 0-1.31-.56h-4.78a1.8 1.8 0 0 0-1.31.56 1.84 1.84 0 0 0-.54 1.31v4.52A1.87 1.87 0 0 0 30.6 13h4.8a1.87 1.87 0 0 0 1.85-1.89zM42 5.39v31.23A5.41 5.41 0 0 1 36.62 42H5.39a5.19 5.19 0 0 1-3.8-1.59A5.19 5.19 0 0 1 0 36.62V5.39a5.19 5.19 0 0 1 1.59-3.8A5.19 5.19 0 0 1 5.39 0h31.23a5.19 5.19 0 0 1 3.8 1.59A5.19 5.19 0 0 1 42 5.39z"/></svg><svg id="mail" data-name="Layer 1" width="64" height="48" viewBox="0 0 64 48" x="142.4" y="64" xmlns="http://www.w3.org/2000/svg"><defs><style>.hcls-1{fill:#2f5572}</style></defs><path class="hcls-1" d="M0 0v8l32 16L64 8V0H0zm0 16v32h64V16L32 32z"/></svg><svg id="rain" data-name="Layer 1" width="64" height="64" viewBox="0 0 64 64" x="120" y="119.06" xmlns="http://www.w3.org/2000/svg"><defs><style>.icls-1{fill:#d4953f}</style></defs><path class="icls-1" d="M36 0a20.42 20.42 0 0 0-20 16A16 16 0 0 0 0 32a15.4 15.4 0 0 0 4.27 10.72A11.88 11.88 0 0 1 12 40a10.51 10.51 0 0 1 4.47 1A12 12 0 0 1 28 32a12.06 12.06 0 0 1 11.51 9A11.84 11.84 0 0 1 44 40a11.94 11.94 0 0 1 11 7.52A12.07 12.07 0 0 0 64 36c0-5.2-3.36-10.32-8-12v-4A20 20 0 0 0 36 0zm-9.27 40A4 4 0 0 0 24 44v16a4 4 0 1 0 8 0V44a4 4 0 0 0-4.71-4h-.56zm-16 8A4 4 0 0 0 8 52v8a4 4 0 1 0 8 0v-8a4 4 0 0 0-4.71-4h-.54zm32 0A4 4 0 0 0 40 52v8a4 4 0 1 0 8 0v-8a4 4 0 0 0-4.71-4h-.58z" transform="translate(-.04)"/></svg><svg id="star" data-name="Layer 1" width="64" height="64" viewBox="0 0 64 64" x="206.4" xmlns="http://www.w3.org/2000/svg"><defs><style>.jcls-1{fill:#d4953f}</style></defs><path class="jcls-1" d="M32 0l-8 24H0l20 16-8 24 20-16 20 16-8-24 20-16H40z"/></svg><svg id="twitter" data-name="Layer 1" width="51.78" height="42.06" viewBox="0 0 51.78 42.06" x="206.4" y="128" xmlns="http://www.w3.org/2000/svg"><defs><style>.kcls-1{fill:#fff}</style></defs><path class="kcls-1" d="M51.78 5a22.23 22.23 0 0 1-5.32 5.52v1.38a30.15 30.15 0 0 1-1.25 8.53 30.81 30.81 0 0 1-3.76 8.13 32.1 32.1 0 0 1-6.06 6.92 27 27 0 0 1-8.48 4.8 31 31 0 0 1-10.62 1.8A29.47 29.47 0 0 1 0 37.29a22.71 22.71 0 0 0 2.56.13 20.78 20.78 0 0 0 13.17-4.53 10.63 10.63 0 0 1-9.92-7.36 13.45 13.45 0 0 0 2 .16 11 11 0 0 0 2.79-.36 10.44 10.44 0 0 1-6.09-3.67 10.25 10.25 0 0 1-2.41-6.75v-.13a10.52 10.52 0 0 0 4.8 1.34 10.6 10.6 0 0 1-3.45-3.78 10.34 10.34 0 0 1-1.28-5.07 10.4 10.4 0 0 1 1.45-5.33 30.08 30.08 0 0 0 9.71 7.83A29.57 29.57 0 0 0 25.53 13a11.79 11.79 0 0 1-.26-2.43 10.23 10.23 0 0 1 3-7.48 10.64 10.64 0 0 1 15 0l.21.22A20.81 20.81 0 0 0 50.33.8a10.3 10.3 0 0 1-4.67 5.85A21.14 21.14 0 0 0 51.78 5z"/></svg><svg id="wifi" data-name="Layer 1" width="60" height="64" viewBox="0 0 60 64" x="206.4" y="64" xmlns="http://www.w3.org/2000/svg"><defs><style>.lcls-1{fill:#d4953e}</style></defs><path class="lcls-1" d="M29.88 0A55.39 55.39 0 0 0 0 8.72l4.22 6.48a47.32 47.32 0 0 1 25.66-7.28 47.31 47.31 0 0 1 25.9 7.28L60 8.72A55.53 55.53 0 0 0 29.88 0zm0 24a31.08 31.08 0 0 0-17 5l4.22 6.72A23.09 23.09 0 0 1 29.8 32a24.17 24.17 0 0 1 13 3.76L47 29a32.37 32.37 0 0 0-17.2-5h.07zm0 24a8 8 0 1 0 8 8 8 8 0 0 0-8-8z"/></svg><svg id="youtube" data-name="Layer 1" width="34.75" height="42" viewBox="0 0 34.75 42" x="42.01" y="183.06" xmlns="http://www.w3.org/2000/svg"><defs><style>.mcls-1{fill:#fff}</style></defs><path class="mcls-1" d="M22.13 29.15v5q0 1.57-.91 1.57a1.5 1.5 0 0 1-1.06-.52v-7.11a1.5 1.5 0 0 1 1.06-.54q.91 0 .91 1.6zm7.92 0v1.08h-2.1v-1.06q0-1.59 1.06-1.59t1 1.59zM7.42 24h2.5v-2.14h-7.3v2.2h2.46V37.4h2.34V24zm6.75 13.4h2.09V25.82h-2.09v8.86a1.86 1.86 0 0 1-1.31 1 .48.48 0 0 1-.49-.47 6.52 6.52 0 0 1 0-.82v-8.57h-2.14V35a5.79 5.79 0 0 0 .19 1.71 1.26 1.26 0 0 0 1.36.87 3.43 3.43 0 0 0 2.39-1.43v1.25zm10.05-3.47v-4.6A8.33 8.33 0 0 0 24 27a1.63 1.63 0 0 0-1.67-1.31A2.82 2.82 0 0 0 20.16 27v-5.1h-2.08v15.5h2.09v-1.13a2.91 2.91 0 0 0 2.18 1.31A1.62 1.62 0 0 0 24 36.27a8.61 8.61 0 0 0 .22-2.35zm7.92-.24v-.3H30a11.6 11.6 0 0 1 0 1.43.9.9 0 0 1-.94.85q-1.08 0-1.08-1.61V32h4.19v-2.41a4.65 4.65 0 0 0-.66-2.72 3.2 3.2 0 0 0-5 0 4.52 4.52 0 0 0-.66 2.72v4.05a4.4 4.4 0 0 0 .66 2.72 3 3 0 0 0 2.49 1.2 2.9 2.9 0 0 0 3-2.51 10.31 10.31 0 0 0 .09-1.36zM17.89 12.3V7.38q0-1.61-1-1.61t-1 1.61v4.92q0 1.64 1 1.64t1-1.64zm16.85 17.6a40.6 40.6 0 0 1-.61 8.2 4.45 4.45 0 0 1-1.36 2.32 4.1 4.1 0 0 1-2.39 1.08 125.31 125.31 0 0 1-13 .49 125.31 125.31 0 0 1-13-.49A4.15 4.15 0 0 1 2 40.42 4.28 4.28 0 0 1 .63 38.1 39.76 39.76 0 0 1 0 29.9a40.6 40.6 0 0 1 .61-8.2A4.45 4.45 0 0 1 2 19.37a4.25 4.25 0 0 1 2.41-1.1q4.29-.47 13-.47t13 .47a4.4 4.4 0 0 1 3.75 3.42 39.76 39.76 0 0 1 .58 8.21zM11.35 0h2.39l-2.83 9.35v6.35H8.57V9.35a39.68 39.68 0 0 0-1.43-5Q6.27 2 5.61 0H8.1l1.67 6.16zM20 7.8v4.1a4.59 4.59 0 0 1-.66 2.76 2.88 2.88 0 0 1-2.49 1.19 2.9 2.9 0 0 1-2.46-1.19 4.68 4.68 0 0 1-.66-2.76V7.8a4.59 4.59 0 0 1 .66-2.74 2.9 2.9 0 0 1 2.46-1.19 2.88 2.88 0 0 1 2.49 1.19A4.59 4.59 0 0 1 20 7.8zM27.87 4v11.7h-2.13v-1.27a3.37 3.37 0 0 1-2.41 1.45A1.31 1.31 0 0 1 22 15a6 6 0 0 1-.19-1.76V4h2.13v8.6a6.14 6.14 0 0 0 0 .82.49.49 0 0 0 .47.52 1.87 1.87 0 0 0 1.31-1V4h2.16z"/></svg></svg>