<?xml version="1.0" encoding="UTF-8" standalone="no"?><svg width="267" height="172" viewBox="0 0 267 172" xmlns="http://www.w3.org/2000/svg" xmlns:xlink="http://www.w3.org/1999/xlink"><svg id="clear-view-escapes" data-name="Layer 1" width="142.4" height="59.53" version="1.1" viewBox="0 0 142.4 59.53" xmlns="http://www.w3.org/2000/svg"><defs id="adefs3"><style id="astyle5"/></defs><path id="arect4171" opacity="1" fill="#2a4b6a" fill-opacity="1" fill-rule="nonzero" stroke="none" stroke-width="1" stroke-linecap="round" stroke-linejoin="miter" stroke-miterlimit="4" stroke-dasharray="none" stroke-opacity="1" d="M-13.667-12.425h170v84.4h-170z"/><path id="apath4154" style="line-height:125%" d="M42.437 19.042q-.388.17-.705.318-.31.148-.819.31-.43.134-.938.226-.501.099-1.108.099-1.143 0-2.081-.318-.932-.324-1.623-1.008-.677-.67-1.058-1.7-.381-1.038-.381-2.407 0-1.298.366-2.321.367-1.023 1.059-1.729.67-.684 1.615-1.044.953-.36 2.11-.36.847 0 1.686.205.847.205 1.877.72v1.658h-.106q-.868-.727-1.721-1.059-.854-.331-1.828-.331-.797 0-1.439.26-.635.255-1.136.798-.487.53-.762 1.34-.268.805-.268 1.863 0 1.108.296 1.905.304.797.776 1.298.494.523 1.15.777.664.246 1.397.246 1.01 0 1.891-.345.882-.346 1.651-1.037h.1v1.636z" font-style="normal" font-weight="400" font-size="medium" font-family="sans-serif" letter-spacing="0" word-spacing="0" fill="#fff" fill-opacity="1" stroke="none" stroke-width="1" stroke-linecap="butt" stroke-linejoin="miter" stroke-opacity="1"/><path id="apath4156" style="line-height:125%" d="M45.661 19.804h-1.326V8.826h1.326v10.978z" font-style="normal" font-weight="400" font-size="medium" font-family="sans-serif" letter-spacing="0" word-spacing="0" fill="#fff" fill-opacity="1" stroke="none" stroke-width="1" stroke-linecap="butt" stroke-linejoin="miter" stroke-opacity="1"/><path id="apath4158" style="line-height:125%" d="M54.84 16.002h-5.806q0 .726.219 1.27.218.536.6.881.366.34.867.508.508.17 1.115.17.804 0 1.616-.318.818-.324 1.164-.635h.07v1.447q-.67.282-1.368.472-.699.19-1.468.19-1.961 0-3.062-1.057-1.1-1.066-1.1-3.02 0-1.933 1.05-3.07 1.059-1.135 2.78-1.135 1.595 0 2.456.931.868.931.868 2.646v.72zm-1.29-1.016q-.008-1.045-.53-1.616-.515-.572-1.573-.572-1.065 0-1.7.628-.628.628-.713 1.56h4.516z" font-style="normal" font-weight="400" font-size="medium" font-family="sans-serif" letter-spacing="0" word-spacing="0" fill="#fff" fill-opacity="1" stroke="none" stroke-width="1" stroke-linecap="butt" stroke-linejoin="miter" stroke-opacity="1"/><path id="apath4160" style="line-height:125%" d="M62.976 19.804h-1.32v-.84q-.176.12-.48.34-.296.211-.578.338-.332.162-.762.268-.43.113-1.009.113-1.065 0-1.806-.705-.741-.706-.741-1.8 0-.896.381-1.446.388-.557 1.1-.875.72-.317 1.73-.43 1.008-.113 2.165-.17v-.204q0-.452-.162-.748-.155-.296-.452-.466-.282-.162-.677-.218-.395-.057-.825-.057-.522 0-1.165.141-.642.134-1.326.395h-.07v-1.347q.388-.106 1.121-.233.734-.127 1.447-.127.832 0 1.446.141.621.134 1.073.466.444.324.677.84.233.514.233 1.276v5.348zm-1.32-1.94V15.67q-.606.035-1.432.106-.818.07-1.298.204-.572.163-.924.508-.353.339-.353.939 0 .677.409 1.023.41.338 1.249.338.698 0 1.277-.268.578-.275 1.072-.656z" font-style="normal" font-weight="400" font-size="medium" font-family="sans-serif" letter-spacing="0" word-spacing="0" fill="#fff" fill-opacity="1" stroke="none" stroke-width="1" stroke-linecap="butt" stroke-linejoin="miter" stroke-opacity="1"/><path id="apath4162" style="line-height:125%" d="M70.462 13.37h-.071q-.296-.07-.579-.099-.275-.035-.656-.035-.614 0-1.185.275-.571.268-1.1.698v5.595h-1.327v-7.88h1.326v1.164q.79-.635 1.39-.896.607-.269 1.235-.269.346 0 .5.022.156.014.467.063v1.362z" font-style="normal" font-weight="400" font-size="medium" font-family="sans-serif" letter-spacing="0" word-spacing="0" fill="#fff" fill-opacity="1" stroke="none" stroke-width="1" stroke-linecap="butt" stroke-linejoin="miter" stroke-opacity="1"/><path id="apath4164" style="line-height:125%" d="M85.194 9.299l-3.825 10.505h-1.862L75.683 9.3h1.495l3.295 9.243 3.295-9.243h1.426z" font-style="normal" font-weight="400" font-size="medium" font-family="sans-serif" letter-spacing="0" word-spacing="0" fill="#fff" fill-opacity="1" stroke="none" stroke-width="1" stroke-linecap="butt" stroke-linejoin="miter" stroke-opacity="1"/><path id="apath4166" style="line-height:125%" d="M88.107 10.604h-1.495V9.228h1.495v1.376zm-.084 9.2h-1.327v-7.88h1.327v7.88z" font-style="normal" font-weight="400" font-size="medium" font-family="sans-serif" letter-spacing="0" word-spacing="0" fill="#fff" fill-opacity="1" stroke="none" stroke-width="1" stroke-linecap="butt" stroke-linejoin="miter" stroke-opacity="1"/><path id="apath4168" style="line-height:125%" d="M97.202 16.002h-5.807q0 .726.219 1.27.219.536.6.881.367.34.868.508.508.17 1.114.17.805 0 1.616-.318.819-.324 1.164-.635h.07v1.447q-.67.282-1.368.472-.698.19-1.468.19-1.961 0-3.062-1.057-1.1-1.066-1.1-3.02 0-1.933 1.051-3.07 1.058-1.135 2.78-1.135 1.594 0 2.455.931.868.931.868 2.646v.72zm-1.291-1.016q-.007-1.045-.53-1.616-.514-.572-1.573-.572-1.065 0-1.7.628-.628.628-.713 1.56h4.516z" font-style="normal" font-weight="400" font-size="medium" font-family="sans-serif" letter-spacing="0" word-spacing="0" fill="#fff" fill-opacity="1" stroke="none" stroke-width="1" stroke-linecap="butt" stroke-linejoin="miter" stroke-opacity="1"/><path id="apath4170" style="line-height:125%" d="M109.126 11.923l-2.053 7.881h-1.228l-2.025-6.074-2.01 6.074h-1.221l-2.075-7.88h1.383l1.447 6.102 1.968-6.103h1.094l2.018 6.103 1.368-6.103h1.334z" font-style="normal" font-weight="400" font-size="medium" font-family="sans-serif" letter-spacing="0" word-spacing="0" fill="#fff" fill-opacity="1" stroke="none" stroke-width="1" stroke-linecap="butt" stroke-linejoin="miter" stroke-opacity="1"/><path id="apath4190" style="line-height:125%;-inkscape-font-specification:'Arial Bold';text-align:center" d="M17.146 45.299V25.613h14.596v3.33H21.12v4.365h9.883v3.316H21.12v5.358h10.998v3.317H17.146z" font-style="normal" font-variant="normal" font-weight="700" font-stretch="normal" font-size="medium" font-family="Arial" letter-spacing="0" word-spacing="0" text-anchor="middle" fill="#fff" fill-opacity="1" stroke="none" stroke-width="1" stroke-linecap="butt" stroke-linejoin="miter" stroke-opacity="1"/><path id="apath4192" style="line-height:125%;-inkscape-font-specification:'Arial Bold';text-align:center" d="M34.159 41.23l3.786-.577q.242 1.1.98 1.678.739.564 2.068.564 1.464 0 2.202-.537.497-.376.497-1.007 0-.43-.268-.712-.282-.268-1.262-.497-4.566-1.007-5.788-1.84-1.692-1.154-1.692-3.209 0-1.853 1.464-3.115 1.464-1.262 4.538-1.262 2.928 0 4.351.953 1.423.954 1.96 2.82l-3.558.658q-.228-.832-.873-1.275-.63-.444-1.812-.444-1.49 0-2.135.417-.43.295-.43.765 0 .403.376.685.51.376 3.518 1.06 3.021.685 4.216 1.68 1.182 1.006 1.182 2.806 0 1.96-1.638 3.37-1.638 1.41-4.848 1.41-2.913 0-4.619-1.182-1.692-1.181-2.215-3.21z" font-style="normal" font-variant="normal" font-weight="700" font-stretch="normal" font-size="medium" font-family="Arial" letter-spacing="0" word-spacing="0" text-anchor="middle" fill="#fff" fill-opacity="1" stroke="none" stroke-width="1" stroke-linecap="butt" stroke-linejoin="miter" stroke-opacity="1"/><path id="apath4194" style="line-height:125%;-inkscape-font-specification:'Arial Bold';text-align:center" d="M63.23 35.255l-3.72.671q-.188-1.115-.86-1.678-.657-.564-1.718-.564-1.41 0-2.256.98-.832.967-.832 3.25 0 2.537.846 3.584.859 1.048 2.296 1.048 1.074 0 1.759-.604.685-.618.967-2.109l3.706.632q-.578 2.55-2.216 3.853-1.638 1.303-4.39 1.303-3.13 0-4.996-1.974-1.853-1.974-1.853-5.465 0-3.532 1.867-5.492 1.866-1.974 5.048-1.974 2.605 0 4.136 1.128 1.544 1.114 2.216 3.41z" font-style="normal" font-variant="normal" font-weight="700" font-stretch="normal" font-size="medium" font-family="Arial" letter-spacing="0" word-spacing="0" text-anchor="middle" fill="#fff" fill-opacity="1" stroke="none" stroke-width="1" stroke-linecap="butt" stroke-linejoin="miter" stroke-opacity="1"/><path id="apath4196" style="line-height:125%;-inkscape-font-specification:'Arial Bold';text-align:center" d="M68.923 35.389l-3.424-.618q.577-2.068 1.987-3.061 1.41-.994 4.19-.994 2.524 0 3.76.604 1.235.591 1.732 1.518.51.913.51 3.37l-.04 4.404q0 1.88.174 2.78.188.886.685 1.907h-3.733q-.148-.376-.362-1.115-.094-.336-.135-.443-.967.94-2.068 1.41-1.1.47-2.35.47-2.202 0-3.477-1.195-1.262-1.195-1.262-3.021 0-1.209.577-2.149.577-.953 1.611-1.45 1.048-.51 3.008-.886 2.645-.497 3.666-.927v-.376q0-1.087-.537-1.544-.537-.47-2.028-.47-1.007 0-1.57.403-.565.39-.914 1.383zm5.049 3.061q-.725.242-2.296.578-1.571.335-2.055.658-.738.523-.738 1.33 0 .791.59 1.369.591.577 1.504.577 1.021 0 1.947-.671.685-.51.9-1.249.148-.483.148-1.84v-.752z" font-style="normal" font-variant="normal" font-weight="700" font-stretch="normal" font-size="medium" font-family="Arial" letter-spacing="0" word-spacing="0" text-anchor="middle" fill="#fff" fill-opacity="1" stroke="none" stroke-width="1" stroke-linecap="butt" stroke-linejoin="miter" stroke-opacity="1"/><path id="apath4198" style="line-height:125%;-inkscape-font-specification:'Arial Bold';text-align:center" d="M81.303 31.038h3.518v2.095q.685-1.074 1.853-1.746 1.169-.671 2.592-.671 2.484 0 4.216 1.947 1.733 1.947 1.733 5.425 0 3.572-1.746 5.559-1.746 1.974-4.23 1.974-1.181 0-2.148-.47-.954-.47-2.014-1.611v7.183h-3.774V31.038zm3.733 6.889q0 2.403.954 3.558.953 1.141 2.323 1.141 1.316 0 2.188-1.047.873-1.06.873-3.464 0-2.243-.9-3.33-.9-1.088-2.228-1.088-1.384 0-2.297 1.074-.913 1.061-.913 3.156z" font-style="normal" font-variant="normal" font-weight="700" font-stretch="normal" font-size="medium" font-family="Arial" letter-spacing="0" word-spacing="0" text-anchor="middle" fill="#fff" fill-opacity="1" stroke="none" stroke-width="1" stroke-linecap="butt" stroke-linejoin="miter" stroke-opacity="1"/><path id="apath4200" style="line-height:125%;-inkscape-font-specification:'Arial Bold';text-align:center" d="M106.48 40.76l3.76.631q-.725 2.068-2.296 3.156-1.558 1.074-3.907 1.074-3.72 0-5.506-2.43-1.41-1.948-1.41-4.915 0-3.545 1.853-5.546 1.853-2.014 4.687-2.014 3.182 0 5.022 2.108 1.84 2.095 1.759 6.432h-9.454q.04 1.679.914 2.618.872.927 2.175.927.886 0 1.49-.483.605-.484.913-1.558zm.215-3.814q-.04-1.638-.846-2.484-.805-.859-1.96-.859-1.236 0-2.041.9-.806.9-.792 2.443h5.64z" font-style="normal" font-variant="normal" font-weight="700" font-stretch="normal" font-size="medium" font-family="Arial" letter-spacing="0" word-spacing="0" text-anchor="middle" fill="#a21414" fill-opacity="1" stroke="none" stroke-width="1" stroke-linecap="butt" stroke-linejoin="miter" stroke-opacity="1"/><path id="apath4202" style="line-height:125%;-inkscape-font-specification:'Arial Bold';text-align:center" d="M112.2 41.23l3.787-.577q.242 1.1.98 1.678.739.564 2.068.564 1.464 0 2.202-.537.497-.376.497-1.007 0-.43-.268-.712-.282-.268-1.262-.497-4.566-1.007-5.788-1.84-1.692-1.154-1.692-3.209 0-1.853 1.464-3.115 1.464-1.262 4.538-1.262 2.928 0 4.351.953 1.423.954 1.96 2.82l-3.558.658q-.228-.832-.873-1.275-.63-.444-1.812-.444-1.49 0-2.135.417-.43.295-.43.765 0 .403.376.685.51.376 3.518 1.06 3.021.685 4.216 1.68 1.182 1.006 1.182 2.806 0 1.96-1.638 3.37-1.638 1.41-4.848 1.41-2.914 0-4.619-1.182-1.692-1.181-2.215-3.21z" font-style="normal" font-variant="normal" font-weight="700" font-stretch="normal" font-size="medium" font-family="Arial" letter-spacing="0" word-spacing="0" text-anchor="middle" fill="#fff" fill-opacity="1" stroke="none" stroke-width="1" stroke-linecap="butt" stroke-linejoin="miter" stroke-opacity="1"/></svg><svg id="comment" data-name="Layer 1" width="64" height="64" viewBox="0 0 64 64" x="202.4" xmlns="http://www.w3.org/2000/svg"><defs><style>.bcls-1{fill:#2f5572}</style></defs><path class="bcls-1" d="M.72.08A.67.67 0 0 0 0 .8v46.48a.72.72 0 0 0 .72.72H48l16 16V.72a.67.67 0 0 0-.72-.72H.8z"/></svg><svg id="facebook" data-name="Layer 1" width="21.23" height="42.01" viewBox="0 0 21.23 42.01" x="64" y="59.53" xmlns="http://www.w3.org/2000/svg"><defs><style>.ccls-1{fill:#fff}</style></defs><path class="ccls-1" d="M21.23.31V7H17.4a3.55 3.55 0 0 0-2.85.91 4.26 4.26 0 0 0-.74 2.72v4.77H21l-1 7.47h-6.19V42H6.27V22.85H0v-7.47h6.27V9.85q0-4.69 2.55-7.28A9 9 0 0 1 15.63 0a39.57 39.57 0 0 1 5.6.31z"/></svg><svg id="fire" data-name="Layer 1" width="56" height="64" viewBox="0 0 56 64" y="107.53" xmlns="http://www.w3.org/2000/svg"><defs><style>.dcls-1{fill:#d4953d}</style></defs><path class="dcls-1" d="M16 0C24 16 0 24 0 40s16 24 16 24C8.16 48.16 32 40 32 24S16 0 16 0zm24 24c8 16-16 24-16 40h24c3.2 0 8-4 8-16 0-16-16-24-16-24z"/></svg><svg id="globe" data-name="Layer 1" width="64" height="64" viewBox="0 0 64 64" x="56" y="107.53" xmlns="http://www.w3.org/2000/svg"><defs><style>.ecls-1{fill:#d4953f}</style></defs><path class="ecls-1" d="M32 0a32 32 0 1 0 32 32A32 32 0 0 0 32 0zm0 8a23.75 23.75 0 0 1 7.52 1.52c-1.68 1.6-3.6 3-3.28 4.48s5.52 1 5.52 4c0 2.16-3.36 2.8-1 5.28 2.8 2.8-5.12 7.84-5.28 11.52-.24 6.64 6.72 7.76 12.24 7.76 3.36 0 4.24 1.6 4 3.52a24.07 24.07 0 0 1-19.76 10 22.94 22.94 0 0 1-8.48-1.76c1.76-3.52-2.24-10.48-6-12.72-1.84-1.84-5.76-1.12-8-2a23.49 23.49 0 0 1-1.52-6.72 1.42 1.42 0 0 1 1.28-.72c1.52 0 3.6 3 4.72 2.72 1.4-.32-5.96-10.48-2.52-12.48 1.6-1 4.8 3.12 3.76-1.28-1-4.08 2.88-2.24 5.28-3.28 2.08-.88 3.6-3.28 1-4.72a8.55 8.55 0 0 1-1.76-1.52A23.75 23.75 0 0 1 32 8.08V8zm18.48 8.72A26.46 26.46 0 0 1 54 22.48v.24a11.78 11.78 0 0 1-1.76 1.76C50 26.72 49.68 22.8 48.72 22c-1-1-4.8.16-5.28-1-.56-1.48 4-3.4 7.04-4.28z"/></svg><svg id="instagram" data-name="Layer 1" width="42.01" height="42.01" viewBox="0 0 42.01 42.01" x="142.4" y="64" xmlns="http://www.w3.org/2000/svg"><defs><style>.fcls-1{fill:#fff}</style></defs><path class="fcls-1" d="M37.25 35.49V17.77h-3.69a11.77 11.77 0 0 1 .57 3.58 12.12 12.12 0 0 1-1.75 6.36 12.76 12.76 0 0 1-4.76 4.59 13.13 13.13 0 0 1-6.56 1.7 12.78 12.78 0 0 1-9.19-3.71 12 12 0 0 1-3.83-9 11.77 11.77 0 0 1 .49-3.56H4.68v17.76a1.63 1.63 0 0 0 1.6 1.67h29.3a1.63 1.63 0 0 0 1.17-.47 1.59 1.59 0 0 0 .5-1.2zm-7.77-14.57A7.75 7.75 0 0 0 27 15.14a8.28 8.28 0 0 0-6-2.4 8.25 8.25 0 0 0-5.91 2.39 7.75 7.75 0 0 0-2.47 5.78 7.75 7.75 0 0 0 2.47 5.79A8.25 8.25 0 0 0 21 29.1a8.28 8.28 0 0 0 6-2.4 7.75 7.75 0 0 0 2.48-5.78zm7.76-9.84V6.56a1.84 1.84 0 0 0-.54-1.31 1.8 1.8 0 0 0-1.31-.56h-4.78a1.8 1.8 0 0 0-1.31.56 1.84 1.84 0 0 0-.54 1.31v4.52A1.87 1.87 0 0 0 30.6 13h4.8a1.87 1.87 0 0 0 1.85-1.89zM42 5.39v31.23A5.41 5.41 0 0 1 36.62 42H5.39a5.19 5.19 0 0 1-3.8-1.59A5.19 5.19 0 0 1 0 36.62V5.39a5.19 5.19 0 0 1 1.59-3.8A5.19 5.19 0 0 1 5.39 0h31.23a5.19 5.19 0 0 1 3.8 1.59A5.19 5.19 0 0 1 42 5.39z"/></svg><svg id="mail" data-name="Layer 1" width="64" height="48" viewBox="0 0 64 48" y="59.53" xmlns="http://www.w3.org/2000/svg"><defs><style>.gcls-1{fill:#2f5572}</style></defs><path class="gcls-1" d="M0 0v8l32 16L64 8V0H0zm0 16v32h64V16L32 32z"/></svg><svg id="rain" data-name="Layer 1" width="64" height="64" viewBox="0 0 64 64" x="202.4" y="64" xmlns="http://www.w3.org/2000/svg"><defs><style>.hcls-1{fill:#d4953f}</style></defs><path class="hcls-1" d="M36 0a20.42 20.42 0 0 0-20 16A16 16 0 0 0 0 32a15.4 15.4 0 0 0 4.27 10.72A11.88 11.88 0 0 1 12 40a10.51 10.51 0 0 1 4.47 1A12 12 0 0 1 28 32a12.06 12.06 0 0 1 11.51 9A11.84 11.84 0 0 1 44 40a11.94 11.94 0 0 1 11 7.52A12.07 12.07 0 0 0 64 36c0-5.2-3.36-10.32-8-12v-4A20 20 0 0 0 36 0zm-9.27 40A4 4 0 0 0 24 44v16a4 4 0 1 0 8 0V44a4 4 0 0 0-4.71-4h-.56zm-16 8A4 4 0 0 0 8 52v8a4 4 0 1 0 8 0v-8a4 4 0 0 0-4.71-4h-.54zm32 0A4 4 0 0 0 40 52v8a4 4 0 1 0 8 0v-8a4 4 0 0 0-4.71-4h-.58z" transform="translate(-.04)"/></svg><svg id="star" data-name="Layer 1" width="64" height="64" viewBox="0 0 64 64" x="120" y="107.53" xmlns="http://www.w3.org/2000/svg"><defs><style>.icls-1{fill:#d4953f}</style></defs><path class="icls-1" d="M32 0l-8 24H0l20 16-8 24 20-16 20 16-8-24 20-16H40z"/></svg><svg id="twitter" data-name="Layer 1" width="51.78" height="42.06" viewBox="0 0 51.78 42.06" x="202.4" y="128" xmlns="http://www.w3.org/2000/svg"><defs><style>.jcls-1{fill:#fff}</style></defs><path class="jcls-1" d="M51.78 5a22.23 22.23 0 0 1-5.32 5.52v1.38a30.15 30.15 0 0 1-1.25 8.53 30.81 30.81 0 0 1-3.76 8.13 32.1 32.1 0 0 1-6.06 6.92 27 27 0 0 1-8.48 4.8 31 31 0 0 1-10.62 1.8A29.47 29.47 0 0 1 0 37.29a22.71 22.71 0 0 0 2.56.13 20.78 20.78 0 0 0 13.17-4.53 10.63 10.63 0 0 1-9.92-7.36 13.45 13.45 0 0 0 2 .16 11 11 0 0 0 2.79-.36 10.44 10.44 0 0 1-6.09-3.67 10.25 10.25 0 0 1-2.41-6.75v-.13a10.52 10.52 0 0 0 4.8 1.34 10.6 10.6 0 0 1-3.45-3.78 10.34 10.34 0 0 1-1.28-5.07 10.4 10.4 0 0 1 1.45-5.33 30.08 30.08 0 0 0 9.71 7.83A29.57 29.57 0 0 0 25.53 13a11.79 11.79 0 0 1-.26-2.43 10.23 10.23 0 0 1 3-7.48 10.64 10.64 0 0 1 15 0l.21.22A20.81 20.81 0 0 0 50.33.8a10.3 10.3 0 0 1-4.67 5.85A21.14 21.14 0 0 0 51.78 5z"/></svg><svg id="wifi" data-name="Layer 1" width="60" height="64" viewBox="0 0 60 64" x="142.4" xmlns="http://www.w3.org/2000/svg"><defs><style>.kcls-1{fill:#d4953e}</style></defs><path class="kcls-1" d="M29.88 0A55.39 55.39 0 0 0 0 8.72l4.22 6.48a47.32 47.32 0 0 1 25.66-7.28 47.31 47.31 0 0 1 25.9 7.28L60 8.72A55.53 55.53 0 0 0 29.88 0zm0 24a31.08 31.08 0 0 0-17 5l4.22 6.72A23.09 23.09 0 0 1 29.8 32a24.17 24.17 0 0 1 13 3.76L47 29a32.37 32.37 0 0 0-17.2-5h.07zm0 24a8 8 0 1 0 8 8 8 8 0 0 0-8-8z"/></svg><svg id="youtube" data-name="Layer 1" width="34.75" height="42" viewBox="0 0 34.75 42" x="85.23" y="59.53" xmlns="http://www.w3.org/2000/svg"><defs><style>.lcls-1{fill:#fff}</style></defs><path class="lcls-1" d="M22.13 29.15v5q0 1.57-.91 1.57a1.5 1.5 0 0 1-1.06-.52v-7.11a1.5 1.5 0 0 1 1.06-.54q.91 0 .91 1.6zm7.92 0v1.08h-2.1v-1.06q0-1.59 1.06-1.59t1 1.59zM7.42 24h2.5v-2.14h-7.3v2.2h2.46V37.4h2.34V24zm6.75 13.4h2.09V25.82h-2.09v8.86a1.86 1.86 0 0 1-1.31 1 .48.48 0 0 1-.49-.47 6.52 6.52 0 0 1 0-.82v-8.57h-2.14V35a5.79 5.79 0 0 0 .19 1.71 1.26 1.26 0 0 0 1.36.87 3.43 3.43 0 0 0 2.39-1.43v1.25zm10.05-3.47v-4.6A8.33 8.33 0 0 0 24 27a1.63 1.63 0 0 0-1.67-1.31A2.82 2.82 0 0 0 20.16 27v-5.1h-2.08v15.5h2.09v-1.13a2.91 2.91 0 0 0 2.18 1.31A1.62 1.62 0 0 0 24 36.27a8.61 8.61 0 0 0 .22-2.35zm7.92-.24v-.3H30a11.6 11.6 0 0 1 0 1.43.9.9 0 0 1-.94.85q-1.08 0-1.08-1.61V32h4.19v-2.41a4.65 4.65 0 0 0-.66-2.72 3.2 3.2 0 0 0-5 0 4.52 4.52 0 0 0-.66 2.72v4.05a4.4 4.4 0 0 0 .66 2.72 3 3 0 0 0 2.49 1.2 2.9 2.9 0 0 0 3-2.51 10.31 10.31 0 0 0 .09-1.36zM17.89 12.3V7.38q0-1.61-1-1.61t-1 1.61v4.92q0 1.64 1 1.64t1-1.64zm16.85 17.6a40.6 40.6 0 0 1-.61 8.2 4.45 4.45 0 0 1-1.36 2.32 4.1 4.1 0 0 1-2.39 1.08 125.31 125.31 0 0 1-13 .49 125.31 125.31 0 0 1-13-.49A4.15 4.15 0 0 1 2 40.42 4.28 4.28 0 0 1 .63 38.1 39.76 39.76 0 0 1 0 29.9a40.6 40.6 0 0 1 .61-8.2A4.45 4.45 0 0 1 2 19.37a4.25 4.25 0 0 1 2.41-1.1q4.29-.47 13-.47t13 .47a4.4 4.4 0 0 1 3.75 3.42 39.76 39.76 0 0 1 .58 8.21zM11.35 0h2.39l-2.83 9.35v6.35H8.57V9.35a39.68 39.68 0 0 0-1.43-5Q6.27 2 5.61 0H8.1l1.67 6.16zM20 7.8v4.1a4.59 4.59 0 0 1-.66 2.76 2.88 2.88 0 0 1-2.49 1.19 2.9 2.9 0 0 1-2.46-1.19 4.68 4.68 0 0 1-.66-2.76V7.8a4.59 4.59 0 0 1 .66-2.74 2.9 2.9 0 0 1 2.46-1.19 2.88 2.88 0 0 1 2.49 1.19A4.59 4.59 0 0 1 20 7.8zM27.87 4v11.7h-2.13v-1.27a3.37 3.37 0 0 1-2.41 1.45A1.31 1.31 0 0 1 22 15a6 6 0 0 1-.19-1.76V4h2.13v8.6a6.14 6.14 0 0 0 0 .82.49.49 0 0 0 .47.52 1.87 1.87 0 0 0 1.31-1V4h2.16z"/></svg></svg>