<svg width="294" height="197" xmlns="http://www.w3.org/2000/svg" xmlns:xlink="http://www.w3.org/1999/xlink"><svg id="clear-view-escapes" data-name="Layer 1" width="170" height="84.4" version="1.1" xmlns="http://www.w3.org/2000/svg"><defs id="adefs3"><style id="astyle5"/></defs><path id="arect4171" opacity="1" fill="#2a4b6a" fill-opacity="1" fill-rule="nonzero" stroke="none" stroke-width="1" stroke-linecap="round" stroke-linejoin="miter" stroke-miterlimit="4" stroke-dasharray="none" stroke-opacity="1" d="M0 0h170v84.4H0z"/><path id="apath4154" style="line-height:125%" d="M56.104 31.468q-.388.17-.706.317-.31.148-.818.31-.43.135-.939.226-.5.1-1.107.1-1.143 0-2.082-.318-.931-.325-1.622-1.01-.678-.67-1.059-1.7-.38-1.037-.38-2.405 0-1.299.366-2.322.367-1.023 1.058-1.728.67-.685 1.616-1.045.953-.36 2.11-.36.846 0 1.686.205.847.205 1.877.72v1.658h-.106q-.868-.727-1.722-1.058-.853-.332-1.827-.332-.797 0-1.44.261-.634.254-1.135.797-.487.53-.762 1.34-.268.805-.268 1.864 0 1.107.296 1.904.303.798.776 1.299.494.522 1.15.776.663.247 1.397.247 1.01 0 1.891-.346.882-.346 1.651-1.037h.099v1.637z" font-style="normal" font-weight="400" font-size="medium" font-family="sans-serif" letter-spacing="0" word-spacing="0" fill="#fff" fill-opacity="1" stroke="none" stroke-width="1" stroke-linecap="butt" stroke-linejoin="miter" stroke-opacity="1"/><path id="apath4156" style="line-height:125%" d="M59.328 32.23h-1.326V21.25h1.326v10.98z" font-style="normal" font-weight="400" font-size="medium" font-family="sans-serif" letter-spacing="0" word-spacing="0" fill="#fff" fill-opacity="1" stroke="none" stroke-width="1" stroke-linecap="butt" stroke-linejoin="miter" stroke-opacity="1"/><path id="apath4158" style="line-height:125%" d="M68.507 28.427h-5.806q0 .727.218 1.27.22.536.6.882.367.338.868.508.508.17 1.115.17.804 0 1.615-.318.819-.325 1.165-.635h.07v1.446q-.67.282-1.369.473-.698.19-1.467.19-1.962 0-3.062-1.058-1.1-1.066-1.1-3.02 0-1.933 1.05-3.069 1.059-1.136 2.78-1.136 1.595 0 2.456.931.867.932.867 2.646v.72zm-1.29-1.016q-.008-1.044-.53-1.616-.515-.571-1.573-.571-1.066 0-1.7.628-.629.628-.713 1.559h4.515z" font-style="normal" font-weight="400" font-size="medium" font-family="sans-serif" letter-spacing="0" word-spacing="0" fill="#fff" fill-opacity="1" stroke="none" stroke-width="1" stroke-linecap="butt" stroke-linejoin="miter" stroke-opacity="1"/><path id="apath4160" style="line-height:125%" d="M76.642 32.23h-1.319v-.84q-.176.12-.48.339-.296.211-.578.338-.332.163-.762.269-.43.112-1.01.112-1.065 0-1.805-.705-.741-.706-.741-1.8 0-.895.38-1.446.389-.557 1.101-.875.72-.317 1.729-.43 1.009-.113 2.166-.17v-.204q0-.451-.162-.748-.155-.296-.452-.465-.282-.163-.677-.22-.395-.056-.826-.056-.522 0-1.164.142-.642.134-1.326.395h-.07v-1.348q.387-.106 1.121-.233t1.446-.127q.833 0 1.447.141.62.134 1.072.466.445.325.678.84.232.515.232 1.277v5.348zm-1.319-1.94v-2.195q-.607.035-1.432.106-.819.07-1.298.205-.572.162-.925.508-.353.338-.353.938 0 .677.41 1.023.409.339 1.249.339.698 0 1.277-.268.578-.276 1.072-.657z" font-style="normal" font-weight="400" font-size="medium" font-family="sans-serif" letter-spacing="0" word-spacing="0" fill="#fff" fill-opacity="1" stroke="none" stroke-width="1" stroke-linecap="butt" stroke-linejoin="miter" stroke-opacity="1"/><path id="apath4162" style="line-height:125%" d="M84.128 25.795h-.07q-.297-.07-.579-.099-.275-.035-.656-.035-.614 0-1.185.275-.572.268-1.101.699v5.595h-1.326v-7.881h1.326v1.164q.79-.635 1.39-.896.607-.268 1.235-.268.345 0 .5.02.156.015.466.064v1.362z" font-style="normal" font-weight="400" font-size="medium" font-family="sans-serif" letter-spacing="0" word-spacing="0" fill="#fff" fill-opacity="1" stroke="none" stroke-width="1" stroke-linecap="butt" stroke-linejoin="miter" stroke-opacity="1"/><path id="apath4164" style="line-height:125%" d="M98.86 21.724L95.036 32.23h-1.863L89.35 21.724h1.496l3.295 9.243 3.295-9.243h1.425z" font-style="normal" font-weight="400" font-size="medium" font-family="sans-serif" letter-spacing="0" word-spacing="0" fill="#fff" fill-opacity="1" stroke="none" stroke-width="1" stroke-linecap="butt" stroke-linejoin="miter" stroke-opacity="1"/><path id="apath4166" style="line-height:125%" d="M101.774 23.03h-1.496v-1.376h1.496v1.375zm-.085 9.2h-1.326v-7.881h1.326v7.88z" font-style="normal" font-weight="400" font-size="medium" font-family="sans-serif" letter-spacing="0" word-spacing="0" fill="#fff" fill-opacity="1" stroke="none" stroke-width="1" stroke-linecap="butt" stroke-linejoin="miter" stroke-opacity="1"/><path id="apath4168" style="line-height:125%" d="M110.869 28.427h-5.807q0 .727.219 1.27.218.536.6.882.366.338.867.508.508.17 1.115.17.804 0 1.616-.318.818-.325 1.164-.635h.07v1.446q-.67.282-1.368.473-.699.19-1.468.19-1.961 0-3.062-1.058-1.1-1.066-1.1-3.02 0-1.933 1.05-3.069 1.059-1.136 2.78-1.136 1.595 0 2.456.931.868.932.868 2.646v.72zm-1.291-1.016q-.007-1.044-.53-1.616-.515-.571-1.573-.571-1.065 0-1.7.628-.628.628-.713 1.559h4.516z" font-style="normal" font-weight="400" font-size="medium" font-family="sans-serif" letter-spacing="0" word-spacing="0" fill="#fff" fill-opacity="1" stroke="none" stroke-width="1" stroke-linecap="butt" stroke-linejoin="miter" stroke-opacity="1"/><path id="apath4170" style="line-height:125%" d="M122.793 24.349l-2.054 7.88h-1.227l-2.025-6.074-2.011 6.075h-1.22l-2.075-7.881h1.383l1.446 6.103 1.969-6.103h1.093l2.018 6.103 1.369-6.103h1.334z" font-style="normal" font-weight="400" font-size="medium" font-family="sans-serif" letter-spacing="0" word-spacing="0" fill="#fff" fill-opacity="1" stroke="none" stroke-width="1" stroke-linecap="butt" stroke-linejoin="miter" stroke-opacity="1"/><path id="apath4190" style="line-height:125%;-inkscape-font-specification:'Arial Bold';text-align:center" d="M30.812 57.724V38.039h14.596v3.33H34.787v4.364h9.883v3.317h-9.883v5.357h10.997v3.317H30.812z" font-style="normal" font-variant="normal" font-weight="700" font-stretch="normal" font-size="medium" font-family="Arial" letter-spacing="0" word-spacing="0" text-anchor="middle" fill="#fff" fill-opacity="1" stroke="none" stroke-width="1" stroke-linecap="butt" stroke-linejoin="miter" stroke-opacity="1"/><path id="apath4192" style="line-height:125%;-inkscape-font-specification:'Arial Bold';text-align:center" d="M47.825 53.655l3.787-.577q.242 1.1.98 1.678.739.564 2.068.564 1.464 0 2.202-.537.497-.376.497-1.007 0-.43-.269-.712-.282-.268-1.262-.496-4.565-1.008-5.787-1.84-1.692-1.155-1.692-3.21 0-1.852 1.464-3.114 1.463-1.263 4.538-1.263 2.927 0 4.35.954 1.424.953 1.961 2.82l-3.558.657q-.228-.832-.873-1.275-.631-.443-1.813-.443-1.49 0-2.135.416-.43.295-.43.765 0 .403.377.685.51.376 3.518 1.061 3.02.685 4.216 1.678 1.182 1.007 1.182 2.807 0 1.96-1.639 3.37-1.638 1.41-4.847 1.41-2.914 0-4.62-1.182-1.691-1.181-2.215-3.209z" font-style="normal" font-variant="normal" font-weight="700" font-stretch="normal" font-size="medium" font-family="Arial" letter-spacing="0" word-spacing="0" text-anchor="middle" fill="#fff" fill-opacity="1" stroke="none" stroke-width="1" stroke-linecap="butt" stroke-linejoin="miter" stroke-opacity="1"/><path id="apath4194" style="line-height:125%;-inkscape-font-specification:'Arial Bold';text-align:center" d="M76.896 47.68l-3.72.671q-.187-1.114-.858-1.678-.658-.564-1.72-.564-1.41 0-2.255.98-.833.967-.833 3.25 0 2.537.846 3.585.86 1.047 2.296 1.047 1.075 0 1.76-.604.684-.618.966-2.108l3.706.63q-.577 2.552-2.215 3.855-1.638 1.302-4.391 1.302-3.129 0-4.995-1.974-1.853-1.974-1.853-5.465 0-3.531 1.866-5.492 1.867-1.974 5.049-1.974 2.605 0 4.136 1.128 1.544 1.115 2.215 3.41z" font-style="normal" font-variant="normal" font-weight="700" font-stretch="normal" font-size="medium" font-family="Arial" letter-spacing="0" word-spacing="0" text-anchor="middle" fill="#fff" fill-opacity="1" stroke="none" stroke-width="1" stroke-linecap="butt" stroke-linejoin="miter" stroke-opacity="1"/><path id="apath4196" style="line-height:125%;-inkscape-font-specification:'Arial Bold';text-align:center" d="M82.59 47.814l-3.424-.618q.577-2.067 1.987-3.061 1.41-.994 4.19-.994 2.524 0 3.76.605 1.235.59 1.731 1.517.51.913.51 3.37l-.04 4.405q0 1.88.175 2.78.188.885.685 1.906H88.43q-.148-.376-.363-1.115-.094-.335-.134-.443-.967.94-2.068 1.41t-2.35.47q-2.202 0-3.478-1.195-1.262-1.195-1.262-3.021 0-1.209.578-2.149.577-.953 1.611-1.45 1.047-.51 3.008-.886 2.645-.497 3.666-.927v-.376q0-1.087-.538-1.544-.537-.47-2.027-.47-1.007 0-1.571.403-.564.39-.913 1.383zm5.049 3.062q-.726.241-2.297.577-1.57.336-2.054.658-.739.524-.739 1.33 0 .792.591 1.369t1.504.577q1.02 0 1.947-.671.685-.51.9-1.249.148-.483.148-1.84v-.751z" font-style="normal" font-variant="normal" font-weight="700" font-stretch="normal" font-size="medium" font-family="Arial" letter-spacing="0" word-spacing="0" text-anchor="middle" fill="#fff" fill-opacity="1" stroke="none" stroke-width="1" stroke-linecap="butt" stroke-linejoin="miter" stroke-opacity="1"/><path id="apath4198" style="line-height:125%;-inkscape-font-specification:'Arial Bold';text-align:center" d="M94.97 43.464h3.518v2.094q.685-1.074 1.853-1.745 1.168-.672 2.592-.672 2.484 0 4.216 1.947 1.732 1.947 1.732 5.425 0 3.572-1.745 5.56-1.746 1.973-4.23 1.973-1.182 0-2.149-.47-.953-.47-2.014-1.611v7.184H94.97V43.464zm3.733 6.888q0 2.404.953 3.558.954 1.142 2.323 1.142 1.316 0 2.19-1.048.872-1.06.872-3.464 0-2.242-.9-3.33t-2.229-1.088q-1.383 0-2.296 1.074-.913 1.061-.913 3.156z" font-style="normal" font-variant="normal" font-weight="700" font-stretch="normal" font-size="medium" font-family="Arial" letter-spacing="0" word-spacing="0" text-anchor="middle" fill="#fff" fill-opacity="1" stroke="none" stroke-width="1" stroke-linecap="butt" stroke-linejoin="miter" stroke-opacity="1"/><path id="apath4200" style="line-height:125%;-inkscape-font-specification:'Arial Bold';text-align:center" d="M120.147 53.185l3.76.631q-.725 2.068-2.296 3.156-1.558 1.074-3.908 1.074-3.72 0-5.505-2.43-1.41-1.947-1.41-4.915 0-3.545 1.853-5.546 1.853-2.014 4.686-2.014 3.183 0 5.022 2.108 1.84 2.095 1.76 6.432h-9.454q.04 1.679.913 2.619.873.926 2.176.926.886 0 1.49-.483.604-.484.913-1.558zm.215-3.813q-.04-1.638-.846-2.484-.806-.86-1.96-.86-1.236 0-2.041.9-.806.9-.793 2.444h5.64z" font-style="normal" font-variant="normal" font-weight="700" font-stretch="normal" font-size="medium" font-family="Arial" letter-spacing="0" word-spacing="0" text-anchor="middle" fill="#fff" fill-opacity="1" stroke="none" stroke-width="1" stroke-linecap="butt" stroke-linejoin="miter" stroke-opacity="1"/><path id="apath4202" style="line-height:125%;-inkscape-font-specification:'Arial Bold';text-align:center" d="M125.867 53.655l3.787-.577q.242 1.1.98 1.678.739.564 2.068.564 1.464 0 2.202-.537.497-.376.497-1.007 0-.43-.269-.712-.282-.268-1.262-.496-4.565-1.008-5.787-1.84-1.692-1.155-1.692-3.21 0-1.852 1.464-3.114 1.463-1.263 4.538-1.263 2.927 0 4.35.954 1.424.953 1.961 2.82l-3.558.657q-.228-.832-.873-1.275-.631-.443-1.813-.443-1.49 0-2.135.416-.43.295-.43.765 0 .403.377.685.51.376 3.518 1.061 3.02.685 4.216 1.678 1.182 1.007 1.182 2.807 0 1.96-1.639 3.37-1.638 1.41-4.847 1.41-2.914 0-4.62-1.182-1.691-1.181-2.215-3.209z" font-style="normal" font-variant="normal" font-weight="700" font-stretch="normal" font-size="medium" font-family="Arial" letter-spacing="0" word-spacing="0" text-anchor="middle" fill="#fff" fill-opacity="1" stroke="none" stroke-width="1" stroke-linecap="butt" stroke-linejoin="miter" stroke-opacity="1"/></svg><svg id="comment" data-name="Layer 1" width="64" height="64" x="128" y="132.4" xmlns="http://www.w3.org/2000/svg"><path d="M.72.08A.67.67 0 0 0 0 .8v46.48a.72.72 0 0 0 .72.72H48l16 16V.72a.67.67 0 0 0-.72-.72H.8z" fill="#2f5572"/></svg><svg id="facebook" data-name="Layer 1" width="21.23" height="42.01" x="272.01" y="106.06" xmlns="http://www.w3.org/2000/svg"><path d="M21.23.31V7H17.4a3.55 3.55 0 0 0-2.85.91 4.26 4.26 0 0 0-.74 2.72v4.77H21l-1 7.47h-6.19V42H6.27V22.85H0v-7.47h6.27V9.85q0-4.69 2.55-7.28A9 9 0 0 1 15.63 0a39.57 39.57 0 0 1 5.6.31z" fill="#fff"/></svg><svg id="fire" data-name="Layer 1" width="56" height="64" x="170" y="64" xmlns="http://www.w3.org/2000/svg"><path d="M16 0C24 16 0 24 0 40s16 24 16 24C8.16 48.16 32 40 32 24S16 0 16 0zm24 24c8 16-16 24-16 40h24c3.2 0 8-4 8-16 0-16-16-24-16-24z" fill="#d4953d"/></svg><svg id="globe" data-name="Layer 1" width="64" height="64" y="132.4" xmlns="http://www.w3.org/2000/svg"><path d="M32 0a32 32 0 1 0 32 32A32 32 0 0 0 32 0zm0 8a23.75 23.75 0 0 1 7.52 1.52c-1.68 1.6-3.6 3-3.28 4.48s5.52 1 5.52 4c0 2.16-3.36 2.8-1 5.28 2.8 2.8-5.12 7.84-5.28 11.52-.24 6.64 6.72 7.76 12.24 7.76 3.36 0 4.24 1.6 4 3.52a24.07 24.07 0 0 1-19.76 10 22.94 22.94 0 0 1-8.48-1.76c1.76-3.52-2.24-10.48-6-12.72-1.84-1.84-5.76-1.12-8-2a23.49 23.49 0 0 1-1.52-6.72 1.42 1.42 0 0 1 1.28-.72c1.52 0 3.6 3 4.72 2.72 1.4-.32-5.96-10.48-2.52-12.48 1.6-1 4.8 3.12 3.76-1.28-1-4.08 2.88-2.24 5.28-3.28 2.08-.88 3.6-3.28 1-4.72a8.55 8.55 0 0 1-1.76-1.52A23.75 23.75 0 0 1 32 8.08V8zm18.48 8.72A26.46 26.46 0 0 1 54 22.48v.24a11.78 11.78 0 0 1-1.76 1.76C50 26.72 49.68 22.8 48.72 22c-1-1-4.8.16-5.28-1-.56-1.48 4-3.4 7.04-4.28z" fill="#d4953f"/></svg><svg id="instagram" data-name="Layer 1" width="42.01" height="42.01" x="230" y="106.06" xmlns="http://www.w3.org/2000/svg"><path d="M37.25 35.49V17.77h-3.69a11.77 11.77 0 0 1 .57 3.58 12.12 12.12 0 0 1-1.75 6.36 12.76 12.76 0 0 1-4.76 4.59 13.13 13.13 0 0 1-6.56 1.7 12.78 12.78 0 0 1-9.19-3.71 12 12 0 0 1-3.83-9 11.77 11.77 0 0 1 .49-3.56H4.68v17.76a1.63 1.63 0 0 0 1.6 1.67h29.3a1.63 1.63 0 0 0 1.17-.47 1.59 1.59 0 0 0 .5-1.2zm-7.77-14.57A7.75 7.75 0 0 0 27 15.14a8.28 8.28 0 0 0-6-2.4 8.25 8.25 0 0 0-5.91 2.39 7.75 7.75 0 0 0-2.47 5.78 7.75 7.75 0 0 0 2.47 5.79A8.25 8.25 0 0 0 21 29.1a8.28 8.28 0 0 0 6-2.4 7.75 7.75 0 0 0 2.48-5.78zm7.76-9.84V6.56a1.84 1.84 0 0 0-.54-1.31 1.8 1.8 0 0 0-1.31-.56h-4.78a1.8 1.8 0 0 0-1.31.56 1.84 1.84 0 0 0-.54 1.31v4.52A1.87 1.87 0 0 0 30.6 13h4.8a1.87 1.87 0 0 0 1.85-1.89zM42 5.39v31.23A5.41 5.41 0 0 1 36.62 42H5.39a5.19 5.19 0 0 1-3.8-1.59A5.19 5.19 0 0 1 0 36.62V5.39a5.19 5.19 0 0 1 1.59-3.8A5.19 5.19 0 0 1 5.39 0h31.23a5.19 5.19 0 0 1 3.8 1.59A5.19 5.19 0 0 1 42 5.39z" fill="#fff"/></svg><svg id="mail" data-name="Layer 1" width="64" height="48" y="84.4" xmlns="http://www.w3.org/2000/svg"><path d="M0 0v8l32 16L64 8V0H0zm0 16v32h64V16L32 32z" fill="#2f5572"/></svg><svg id="rain" data-name="Layer 1" width="64" height="64" x="230" xmlns="http://www.w3.org/2000/svg"><path d="M36 0a20.42 20.42 0 0 0-20 16A16 16 0 0 0 0 32a15.4 15.4 0 0 0 4.27 10.72A11.88 11.88 0 0 1 12 40a10.51 10.51 0 0 1 4.47 1A12 12 0 0 1 28 32a12.06 12.06 0 0 1 11.51 9A11.84 11.84 0 0 1 44 40a11.94 11.94 0 0 1 11 7.52A12.07 12.07 0 0 0 64 36c0-5.2-3.36-10.32-8-12v-4A20 20 0 0 0 36 0zm-9.27 40A4 4 0 0 0 24 44v16a4 4 0 1 0 8 0V44a4 4 0 0 0-4.71-4h-.56zm-16 8A4 4 0 0 0 8 52v8a4 4 0 1 0 8 0v-8a4 4 0 0 0-4.71-4h-.54zm32 0A4 4 0 0 0 40 52v8a4 4 0 1 0 8 0v-8a4 4 0 0 0-4.71-4h-.58z" transform="translate(-.04)" fill="#d4953f"/></svg><svg id="star" data-name="Layer 1" width="64" height="64" x="64" y="132.4" xmlns="http://www.w3.org/2000/svg"><path d="M32 0l-8 24H0l20 16-8 24 20-16 20 16-8-24 20-16H40z" fill="#d4953f"/></svg><svg id="twitter" data-name="Layer 1" width="51.78" height="42.06" x="230" y="64" xmlns="http://www.w3.org/2000/svg"><path d="M51.78 5a22.23 22.23 0 0 1-5.32 5.52v1.38a30.15 30.15 0 0 1-1.25 8.53 30.81 30.81 0 0 1-3.76 8.13 32.1 32.1 0 0 1-6.06 6.92 27 27 0 0 1-8.48 4.8 31 31 0 0 1-10.62 1.8A29.47 29.47 0 0 1 0 37.29a22.71 22.71 0 0 0 2.56.13 20.78 20.78 0 0 0 13.17-4.53 10.63 10.63 0 0 1-9.92-7.36 13.45 13.45 0 0 0 2 .16 11 11 0 0 0 2.79-.36 10.44 10.44 0 0 1-6.09-3.67 10.25 10.25 0 0 1-2.41-6.75v-.13a10.52 10.52 0 0 0 4.8 1.34 10.6 10.6 0 0 1-3.45-3.78 10.34 10.34 0 0 1-1.28-5.07 10.4 10.4 0 0 1 1.45-5.33 30.08 30.08 0 0 0 9.71 7.83A29.57 29.57 0 0 0 25.53 13a11.79 11.79 0 0 1-.26-2.43 10.23 10.23 0 0 1 3-7.48 10.64 10.64 0 0 1 15 0l.21.22A20.81 20.81 0 0 0 50.33.8a10.3 10.3 0 0 1-4.67 5.85A21.14 21.14 0 0 0 51.78 5z" fill="#fff"/></svg><svg id="wifi" data-name="Layer 1" width="60" height="64" x="170" xmlns="http://www.w3.org/2000/svg"><path d="M29.88 0A55.39 55.39 0 0 0 0 8.72l4.22 6.48a47.32 47.32 0 0 1 25.66-7.28 47.31 47.31 0 0 1 25.9 7.28L60 8.72A55.53 55.53 0 0 0 29.88 0zm0 24a31.08 31.08 0 0 0-17 5l4.22 6.72A23.09 23.09 0 0 1 29.8 32a24.17 24.17 0 0 1 13 3.76L47 29a32.37 32.37 0 0 0-17.2-5h.07zm0 24a8 8 0 1 0 8 8 8 8 0 0 0-8-8z" fill="#d4953e"/></svg><svg id="youtube" data-name="Layer 1" width="34.75" height="42" x="230" y="148.07" xmlns="http://www.w3.org/2000/svg"><path d="M22.13 29.15v5q0 1.57-.91 1.57a1.5 1.5 0 0 1-1.06-.52v-7.11a1.5 1.5 0 0 1 1.06-.54q.91 0 .91 1.6zm7.92 0v1.08h-2.1v-1.06q0-1.59 1.06-1.59t1 1.59zM7.42 24h2.5v-2.14h-7.3v2.2h2.46V37.4h2.34V24zm6.75 13.4h2.09V25.82h-2.09v8.86a1.86 1.86 0 0 1-1.31 1 .48.48 0 0 1-.49-.47 6.52 6.52 0 0 1 0-.82v-8.57h-2.14V35a5.79 5.79 0 0 0 .19 1.71 1.26 1.26 0 0 0 1.36.87 3.43 3.43 0 0 0 2.39-1.43v1.25zm10.05-3.47v-4.6A8.33 8.33 0 0 0 24 27a1.63 1.63 0 0 0-1.67-1.31A2.82 2.82 0 0 0 20.16 27v-5.1h-2.08v15.5h2.09v-1.13a2.91 2.91 0 0 0 2.18 1.31A1.62 1.62 0 0 0 24 36.27a8.61 8.61 0 0 0 .22-2.35zm7.92-.24v-.3H30a11.6 11.6 0 0 1 0 1.43.9.9 0 0 1-.94.85q-1.08 0-1.08-1.61V32h4.19v-2.41a4.65 4.65 0 0 0-.66-2.72 3.2 3.2 0 0 0-5 0 4.52 4.52 0 0 0-.66 2.72v4.05a4.4 4.4 0 0 0 .66 2.72 3 3 0 0 0 2.49 1.2 2.9 2.9 0 0 0 3-2.51 10.31 10.31 0 0 0 .09-1.36zM17.89 12.3V7.38q0-1.61-1-1.61t-1 1.61v4.92q0 1.64 1 1.64t1-1.64zm16.85 17.6a40.6 40.6 0 0 1-.61 8.2 4.45 4.45 0 0 1-1.36 2.32 4.1 4.1 0 0 1-2.39 1.08 125.31 125.31 0 0 1-13 .49 125.31 125.31 0 0 1-13-.49A4.15 4.15 0 0 1 2 40.42 4.28 4.28 0 0 1 .63 38.1 39.76 39.76 0 0 1 0 29.9a40.6 40.6 0 0 1 .61-8.2A4.45 4.45 0 0 1 2 19.37a4.25 4.25 0 0 1 2.41-1.1q4.29-.47 13-.47t13 .47a4.4 4.4 0 0 1 3.75 3.42 39.76 39.76 0 0 1 .58 8.21zM11.35 0h2.39l-2.83 9.35v6.35H8.57V9.35a39.68 39.68 0 0 0-1.43-5Q6.27 2 5.61 0H8.1l1.67 6.16zM20 7.8v4.1a4.59 4.59 0 0 1-.66 2.76 2.88 2.88 0 0 1-2.49 1.19 2.9 2.9 0 0 1-2.46-1.19 4.68 4.68 0 0 1-.66-2.76V7.8a4.59 4.59 0 0 1 .66-2.74 2.9 2.9 0 0 1 2.46-1.19 2.88 2.88 0 0 1 2.49 1.19A4.59 4.59 0 0 1 20 7.8zM27.87 4v11.7h-2.13v-1.27a3.37 3.37 0 0 1-2.41 1.45A1.31 1.31 0 0 1 22 15a6 6 0 0 1-.19-1.76V4h2.13v8.6a6.14 6.14 0 0 0 0 .82.49.49 0 0 0 .47.52 1.87 1.87 0 0 0 1.31-1V4h2.16z" fill="#fff"/></svg></svg>